<?xml version="1.0" encoding="utf-8"?>
<!-- Generator: Adobe Illustrator 17.1.0, SVG Export Plug-In . SVG Version: 6.00 Build 0)  -->
<!DOCTYPE svg PUBLIC "-//W3C//DTD SVG 1.1//EN" "http://www.w3.org/Graphics/SVG/1.1/DTD/svg11.dtd">
<svg version="1.1" id="Layer_1" xmlns="http://www.w3.org/2000/svg" xmlns:xlink="http://www.w3.org/1999/xlink" x="0px" y="0px"
	 viewBox="0 0 32 32" enable-background="new 0 0 32 32" xml:space="preserve">
<path id="target" fill="#FFFFFF" d="M16,0C7.163,0,0,7.163,0,16s7.163,16,16,16s16-7.163,16-16S24.837,0,16,0z M16.499,30.975L16,18
	l-0.499,12.975C7.629,30.714,1.286,24.371,1.025,16.499L14,16L1.025,15.501C1.286,7.629,7.629,1.286,15.501,1.025L16,14
	l0.499-12.975c7.872,0.261,14.215,6.604,14.476,14.476L18,16l12.975,0.499C30.714,24.371,24.371,30.714,16.499,30.975z"/>
</svg>
