<?xml version="1.0" encoding="utf-8"?>
<!-- Generator: Adobe Illustrator 17.1.0, SVG Export Plug-In . SVG Version: 6.00 Build 0)  -->
<!DOCTYPE svg PUBLIC "-//W3C//DTD SVG 1.1//EN" "http://www.w3.org/Graphics/SVG/1.1/DTD/svg11.dtd">
<svg version="1.1" id="Layer_1" xmlns="http://www.w3.org/2000/svg" xmlns:xlink="http://www.w3.org/1999/xlink" x="0px" y="0px"
	 viewBox="0 0 32 32" enable-background="new 0 0 32 32" xml:space="preserve">
<path id="target" fill="#004855" d="M16,0C7.2,0,0,7.2,0,16s7.2,16,16,16s16-7.2,16-16S24.8,0,16,0z M16.5,31L16,18l-0.5,13
	C7.6,30.7,1.3,24.4,1,16.5L14,16L1,15.5C1.3,7.6,7.6,1.3,15.5,1L16,14l0.5-13C24.4,1.3,30.7,7.6,31,15.5L18,16l13,0.5
	C30.7,24.4,24.4,30.7,16.5,31z"/>
</svg>
