<?xml version="1.0" encoding="utf-8"?>
<!-- Generator: Adobe Illustrator 17.1.0, SVG Export Plug-In . SVG Version: 6.00 Build 0)  -->
<!DOCTYPE svg PUBLIC "-//W3C//DTD SVG 1.1//EN" "http://www.w3.org/Graphics/SVG/1.1/DTD/svg11.dtd">
<svg version="1.1" id="Layer_1" xmlns="http://www.w3.org/2000/svg" xmlns:xlink="http://www.w3.org/1999/xlink" x="0px" y="0px"
	 viewBox="0 0 512 512" enable-background="new 0 0 512 512" xml:space="preserve">
<path id="target" fill="#004855" d="M256,0C115.2,0,0,115.2,0,256s115.2,256,256,256s256-115.2,256-256S396.8,0,256,0z M264,496
	l-8-208l-8,208C121.6,491.2,20.8,390.4,16,264l208-8l-208-8C20.8,121.6,121.6,20.8,248,16l8,208l8-208
	c126.4,4.8,227.2,105.6,232,232l-208,8l208,8C491.2,390.4,390.4,491.2,264,496z"/>
</svg>
