<?xml version="1.0" encoding="utf-8"?>
<!-- Generator: Adobe Illustrator 17.1.0, SVG Export Plug-In . SVG Version: 6.00 Build 0)  -->
<!DOCTYPE svg PUBLIC "-//W3C//DTD SVG 1.1//EN" "http://www.w3.org/Graphics/SVG/1.1/DTD/svg11.dtd">
<svg version="1.1" id="Layer_1" xmlns="http://www.w3.org/2000/svg" xmlns:xlink="http://www.w3.org/1999/xlink" x="0px" y="0px"
	 viewBox="0 0 512 512" enable-background="new 0 0 512 512" xml:space="preserve" width="512" height="512">
<g>
	<path d="M226.6,207.8c-5.4,0-9.8,4.4-9.8,9.8c0,5.4,4.4,9.8,9.8,9.8c5.4,0,9.8-4.4,9.8-9.8C236.4,212.2,232,207.8,226.6,207.8z"/>
	<path d="M292.4,227.4c5.4,0,9.8-4.4,9.8-9.8c0-5.4-4.4-9.8-9.8-9.8c-5.4,0-9.8,4.4-9.8,9.8C282.6,223,287,227.4,292.4,227.4z"/>
	<path d="M256,96c-88.2,0-160,71.8-160,160s71.8,160,160,160s160-71.8,160-160S344.2,96,256,96z M277.5,186.8l48.4-28.3
		c2.1-1.2,4.9-0.5,6.1,1.6c1.2,2.1,0.5,4.9-1.6,6.1L282,194.5c-2.1,1.3-4.8,0.5-6.1-1.6C274.7,190.8,275.4,188,277.5,186.8z
		 M292.4,199c10.3,0,18.6,8.4,18.6,18.6c0,10.3-8.3,18.6-18.6,18.6c-10.3,0-18.6-8.4-18.6-18.6C273.8,207.3,282.2,199,292.4,199z
		 M186.2,160.1c1.2-2.1,4-2.8,6.1-1.6l48.4,28.3c2.1,1.2,2.9,4,1.6,6.1c-1.2,2.1-4,2.9-6.1,1.6l-48.4-28.3
		C185.7,165,185,162.2,186.2,160.1z M245.2,217.6c0,10.3-8.4,18.6-18.6,18.6c-10.3,0-18.6-8.4-18.6-18.6c0-10.3,8.4-18.6,18.6-18.6
		C236.9,199,245.2,207.4,245.2,217.6z M339.7,295.5c-55.3,4.2-104.5,22.7-143.6,49.8c-1.8,1.2-4.2,0.8-5.5-0.9
		c-1.3-1.7-0.9-4.1,0.9-5.4c39.9-27.7,90.2-46.8,146.5-51.3c2.6-0.2,5.1,1.4,5.5,3.6C343.9,293.4,342.2,295.3,339.7,295.5z"/>
</g>
</svg>
