<?xml version="1.0" encoding="utf-8"?>
<!-- Generator: Adobe Illustrator 17.1.0, SVG Export Plug-In . SVG Version: 6.00 Build 0)  -->
<!DOCTYPE svg PUBLIC "-//W3C//DTD SVG 1.1//EN" "http://www.w3.org/Graphics/SVG/1.1/DTD/svg11.dtd">
<svg version="1.1" id="Layer_1" xmlns="http://www.w3.org/2000/svg" xmlns:xlink="http://www.w3.org/1999/xlink" x="0px" y="0px"
	 viewBox="0 0 512 512" enable-background="new 0 0 512 512" xml:space="preserve" width="512" height="512">
<g>
	<path d="M226.574,236.241c-10.276,0-18.636-8.362-18.636-18.639c0-10.274,8.36-18.635,18.636-18.635
		c10.273,0,18.633,8.36,18.633,18.635C245.207,227.879,236.847,236.241,226.574,236.241z M226.574,207.817
		c-5.396,0-9.786,4.389-9.786,9.785c0,5.397,4.39,9.789,9.786,9.789s9.783-4.392,9.783-9.789
		C236.357,212.206,231.97,207.817,226.574,207.817z"/>
	<path d="M292.389,236.241c-10.273,0-18.633-8.362-18.633-18.639c0-10.274,8.36-18.635,18.633-18.635
		c10.279,0,18.639,8.36,18.639,18.635C311.028,227.879,302.668,236.241,292.389,236.241z M292.389,207.817
		c-5.396,0-9.783,4.389-9.783,9.785c0,5.397,4.388,9.789,9.783,9.789c5.399,0,9.789-4.392,9.789-9.789
		C302.178,212.206,297.788,207.817,292.389,207.817z"/>
	<path d="M256.001,416.001C167.776,416.001,96,344.226,96,256.002c0-88.226,71.776-160.003,160.001-160.003
		C344.224,95.999,416,167.777,416,256.002C416,344.226,344.224,416.001,256.001,416.001z M256.001,104.849
		c-83.345,0-151.152,67.808-151.152,151.153c0,83.344,67.806,151.149,151.152,151.149c83.342,0,151.149-67.805,151.149-151.149
		C407.15,172.657,339.344,104.849,256.001,104.849z"/>
	<path d="M242.315,192.895c1.253-2.136,0.536-4.889-1.605-6.137l-48.418-28.329c-2.135-1.25-4.883-0.534-6.142,1.607l0,0
		c-1.25,2.135-0.527,4.889,1.616,6.138l48.418,28.327C238.322,195.754,241.064,195.035,242.315,192.895L242.315,192.895z"/>
	<path d="M275.902,192.895c-1.244-2.136-0.527-4.889,1.613-6.137l48.415-28.329c2.141-1.25,4.886-0.534,6.148,1.607l0,0
		c1.242,2.135,0.524,4.889-1.61,6.138l-48.421,28.327C279.906,195.754,277.155,195.035,275.902,192.895L275.902,192.895z"/>
	<path d="M343.478,291.253c-0.428-2.159-2.911-3.781-5.457-3.572c-56.334,4.513-106.554,23.561-146.508,51.316
		c-1.826,1.265-2.21,3.687-0.941,5.411l0,0c1.281,1.713,3.725,2.104,5.488,0.876c39.099-27.067,88.347-45.612,143.645-49.807
		C342.21,295.285,343.909,293.415,343.478,291.253L343.478,291.253z"/>
</g>
</svg>
