<?xml version="1.0" encoding="utf-8"?>
<!-- Generator: Adobe Illustrator 17.1.0, SVG Export Plug-In . SVG Version: 6.00 Build 0)  -->
<!DOCTYPE svg PUBLIC "-//W3C//DTD SVG 1.1//EN" "http://www.w3.org/Graphics/SVG/1.1/DTD/svg11.dtd">
<svg version="1.1" id="Layer_1" xmlns="http://www.w3.org/2000/svg" xmlns:xlink="http://www.w3.org/1999/xlink" x="0px" y="0px"
	 viewBox="0 0 512 512" enable-background="new 0 0 512 512" xml:space="preserve" width="512" height="512">
<g>
	<path d="M292.405,236.237c-10.279,0-18.639-8.36-18.639-18.633c0-10.279,8.36-18.639,18.639-18.639
		c10.279,0,18.642,8.36,18.642,18.639C311.047,227.877,302.684,236.237,292.405,236.237z M292.405,207.815
		c-5.399,0-9.789,4.39-9.789,9.789c0,5.396,4.39,9.783,9.789,9.783s9.792-4.388,9.792-9.783
		C302.197,212.205,297.804,207.815,292.405,207.815z"/>
	<path d="M256.009,416.003C167.779,416.003,96,344.223,96,255.994c0-88.223,71.779-159.997,160.009-159.997
		c88.22,0,159.991,71.774,159.991,159.997C416,344.223,344.229,416.003,256.009,416.003z M256.009,104.847
		c-83.349,0-151.159,67.804-151.159,151.147c0,83.349,67.81,151.159,151.159,151.159c83.34,0,151.141-67.81,151.141-151.159
		C407.15,172.651,339.349,104.847,256.009,104.847z"/>
	<path d="M370.772,279.268c1.835,0.577,2.554,3.48,1.478,6.381c-39.459,106.485-191.303,106.479-230.751-0.017
		c-1.072-2.889-0.349-5.786,1.485-6.364l0,0c1.842-0.582,4.051,1.211,5.053,3.906c37.212,100.462,180.453,100.468,217.676,0.016
		C366.72,280.483,368.928,278.685,370.772,279.268L370.772,279.268z"/>
	<path d="M251.12,229.384c-1.612,1.303-4.189,0.803-5.973-0.737c-11.232-9.801-28.13-9.802-39.363-0.004
		c-1.794,1.548-4.366,2.046-5.978,0.741l0,0c-1.608-1.291-1.257-4.362,1.072-6.388c14.034-12.241,35.144-12.239,49.176,0.006
		C252.371,225.017,252.728,228.092,251.12,229.384L251.12,229.384z"/>
</g>
</svg>
