<?xml version="1.0" encoding="utf-8"?>
<!-- Generator: Adobe Illustrator 17.1.0, SVG Export Plug-In . SVG Version: 6.00 Build 0)  -->
<!DOCTYPE svg PUBLIC "-//W3C//DTD SVG 1.1//EN" "http://www.w3.org/Graphics/SVG/1.1/DTD/svg11.dtd">
<svg version="1.1" id="Layer_1" xmlns="http://www.w3.org/2000/svg" xmlns:xlink="http://www.w3.org/1999/xlink" x="0px" y="0px"
	 viewBox="0 0 512 512" enable-background="new 0 0 512 512" xml:space="preserve" width="512" height="512">
<g>
	<path d="M292.4,227.4c5.4,0,9.8-4.4,9.8-9.8c0-5.4-4.4-9.8-9.8-9.8c-5.4,0-9.8,4.4-9.8,9.8C282.6,223,287,227.4,292.4,227.4z"/>
	<path d="M256,96c-88.2,0-160,71.8-160,160s71.8,160,160,160s160-71.8,160-160S344.2,96,256,96z M292.4,199
		c10.3,0,18.6,8.4,18.6,18.6c0,10.3-8.3,18.6-18.6,18.6c-10.3,0-18.6-8.4-18.6-18.6C273.8,207.3,282.2,199,292.4,199z M200.8,223
		c14-12.2,35.1-12.2,49.2,0c2.4,2,2.7,5.1,1.1,6.4c-1.6,1.3-4.2,0.8-6-0.7c-11.2-9.8-28.1-9.8-39.4,0c-1.8,1.5-4.4,2-6,0.7
		C198.1,228.1,198.4,225,200.8,223z M141.5,285.7c-1.1-2.9-0.3-5.8,1.5-6.4c1.8-0.6,4.1,1.2,5.1,3.9c37.2,100.5,180.5,100.5,217.7,0
		c0.9-2.7,3.1-4.5,5-3.9c1.8,0.6,2.6,3.5,1.5,6.4C332.8,392.2,181,392.2,141.5,285.7z"/>
</g>
</svg>
