<?xml version="1.0" encoding="utf-8"?>
<!-- Generator: Adobe Illustrator 17.1.0, SVG Export Plug-In . SVG Version: 6.00 Build 0)  -->
<!DOCTYPE svg PUBLIC "-//W3C//DTD SVG 1.1//EN" "http://www.w3.org/Graphics/SVG/1.1/DTD/svg11.dtd">
<svg version="1.1" id="Layer_1" xmlns="http://www.w3.org/2000/svg" xmlns:xlink="http://www.w3.org/1999/xlink" x="0px" y="0px"
	 viewBox="0 0 512 512" enable-background="new 0 0 512 512" xml:space="preserve" width="512" height="512">
<g>
	<path d="M226.578,236.239c-10.274,0-18.635-8.36-18.635-18.639c0-10.276,8.36-18.636,18.635-18.636
		c10.277,0,18.637,8.36,18.637,18.636C245.216,227.879,236.856,236.239,226.578,236.239z M226.578,207.814
		c-5.396,0-9.785,4.39-9.785,9.786c0,5.399,4.389,9.789,9.785,9.789c5.397,0,9.788-4.39,9.788-9.789
		C236.366,212.205,231.976,207.814,226.578,207.814z"/>
	<path d="M292.4,236.239c-10.274,0-18.633-8.36-18.633-18.639c0-10.276,8.359-18.636,18.633-18.636
		c10.276,0,18.636,8.36,18.636,18.636C311.036,227.879,302.676,236.239,292.4,236.239z M292.4,207.814
		c-5.394,0-9.783,4.39-9.783,9.786c0,5.399,4.389,9.789,9.783,9.789c5.396,0,9.786-4.39,9.786-9.789
		C302.187,212.205,297.796,207.814,292.4,207.814z"/>
	<path d="M256.003,415.999c-88.226,0-160.003-71.775-160.003-160c0-88.222,71.777-159.997,160.003-159.997
		C344.226,96.001,416,167.777,416,255.999C416,344.223,344.226,415.999,256.003,415.999z M256.003,104.851
		c-83.346,0-151.153,67.806-151.153,151.147c0,83.345,67.807,151.15,151.153,151.15c83.343,0,151.147-67.806,151.147-151.15
		C407.15,172.657,339.346,104.851,256.003,104.851z"/>
	<path d="M322.261,298.917c-0.965-2.115-3.438-3.059-5.556-2.103l-32.756,14.784l-41.453-15.666
		c-0.975-0.369-1.943-0.395-2.855-0.251c-0.151,0-0.298,0.046-0.438,0.063c-0.197,0.046-0.405,0.063-0.585,0.135
		c-0.229,0.058-0.47,0.052-0.69,0.155l-34.42,15.534c-2.107,0.95-3.049,3.434-2.096,5.545c0.958,2.112,3.434,3.051,5.551,2.097
		l33.456-15.09l41.6,15.726c0.056,0.009,0.099,0.006,0.151,0.026c1.089,0.536,2.375,0.663,3.565,0.118l34.417-15.527
		C322.273,303.515,323.206,301.025,322.261,298.917z"/>
</g>
</svg>
