<?xml version="1.0" encoding="utf-8"?>
<!-- Generator: Adobe Illustrator 17.1.0, SVG Export Plug-In . SVG Version: 6.00 Build 0)  -->
<!DOCTYPE svg PUBLIC "-//W3C//DTD SVG 1.1//EN" "http://www.w3.org/Graphics/SVG/1.1/DTD/svg11.dtd">
<svg version="1.1" id="Layer_1" xmlns="http://www.w3.org/2000/svg" xmlns:xlink="http://www.w3.org/1999/xlink" x="0px" y="0px"
	 viewBox="0 0 512 512" enable-background="new 0 0 512 512" xml:space="preserve" width="512" height="512">
<g>
	<path d="M226.6,227.4c5.4,0,9.8-4.4,9.8-9.8c0-5.4-4.4-9.8-9.8-9.8c-5.4,0-9.8,4.4-9.8,9.8C216.8,223,221.2,227.4,226.6,227.4z"/>
	<path d="M292.4,227.4c5.4,0,9.8-4.4,9.8-9.8c0-5.4-4.4-9.8-9.8-9.8c-5.4,0-9.8,4.4-9.8,9.8C282.6,223,287,227.4,292.4,227.4z"/>
	<path d="M256,96c-88.2,0-160,71.8-160,160s71.8,160,160,160s160-71.8,160-160S344.2,96,256,96z M292.4,199
		c10.3,0,18.6,8.4,18.6,18.6c0,10.3-8.3,18.6-18.6,18.6c-10.3,0-18.6-8.4-18.6-18.6C273.8,207.3,282.2,199,292.4,199z M226.6,199
		c10.3,0,18.6,8.4,18.6,18.6c0,10.3-8.3,18.6-18.6,18.6c-10.3,0-18.6-8.4-18.6-18.6C208,207.3,216.4,199,226.6,199z M320.2,304.3
		l-34.4,15.5c-1.2,0.6-2.5,0.4-3.6-0.1c-0.1,0-0.1,0-0.2,0L240.4,304l-33.5,15.1c-2.2,1-4.6,0-5.6-2.1c-0.9-2.1,0-4.5,2.1-5.5
		l34.4-15.5c0.2-0.1,0.5-0.1,0.7-0.2c0.2,0,0.4-0.1,0.6-0.1c0.1-0.1,0.2-0.1,0.4-0.1c1-0.1,1.9-0.1,2.9,0.3l41.5,15.7l32.8-14.8
		c2.2-1,4.6,0,5.6,2.1C323.2,301,322.3,303.5,320.2,304.3z"/>
</g>
</svg>
