<?xml version="1.0" encoding="utf-8"?>
<!-- Generator: Adobe Illustrator 17.1.0, SVG Export Plug-In . SVG Version: 6.00 Build 0)  -->
<!DOCTYPE svg PUBLIC "-//W3C//DTD SVG 1.1//EN" "http://www.w3.org/Graphics/SVG/1.1/DTD/svg11.dtd">
<svg version="1.1" id="Layer_1" xmlns="http://www.w3.org/2000/svg" xmlns:xlink="http://www.w3.org/1999/xlink" x="0px" y="0px"
	 viewBox="0 0 512 512" enable-background="new 0 0 512 512" xml:space="preserve" width="512" height="512">
<g>
	<path d="M226.6,227.4c5.4,0,9.8-4.4,9.8-9.8c0-5.4-4.4-9.8-9.8-9.8c-5.4,0-9.8,4.4-9.8,9.8C216.8,223,221.2,227.4,226.6,227.4z"/>
	<path d="M178,258c1.8,0,5.6-3.4,7.8-13.1c-6.1,4.1-10.8,8.7-9.8,11C176.4,256.9,177.2,258,178,258z"/>
	<path d="M292.4,227.4c5.4,0,9.8-4.4,9.8-9.8c0-5.4-4.4-9.8-9.8-9.8c-5.4,0-9.8,4.4-9.8,9.8C282.6,223,287,227.4,292.4,227.4z"/>
	<path d="M256,96c-88.2,0-160,71.8-160,160s71.8,160,160,160s160-71.8,160-160S344.2,96,256,96z M292.4,199
		c10.2,0,18.6,8.4,18.6,18.6s-8.3,18.6-18.6,18.6c-10.3,0-18.6-8.4-18.6-18.6S282.2,199,292.4,199z M226.6,199
		c10.3,0,18.6,8.4,18.6,18.6s-8.3,18.6-18.6,18.6c-10.3,0-18.6-8.4-18.6-18.6S216.4,199,226.6,199z M189.7,232.5l7.1-3.4l-0.7,7.8
		c-2.2,22.1-10.7,30-18.1,30c-4.3,0-8.1-2.8-10.1-7.5C162.3,246.4,185.1,234.7,189.7,232.5z M367.5,331.5c-1,1.4-2.5,1-3.5-0.9
		c-18.3-38.6-62.8-65.5-107.4-64.8c-44.6-0.6-89.1,26.3-107.7,64.5c-1,1.9-2.4,2.3-3.4,0.9c-0.9-1.4-0.9-4.1,0.1-6
		c19.3-39,65.2-66.5,111-65.9c45.9-0.7,91.8,26.7,110.9,66.1C368.5,327.4,368.5,330.1,367.5,331.5z"/>
</g>
</svg>
