<?xml version="1.0" encoding="utf-8"?>
<!-- Generator: Adobe Illustrator 17.1.0, SVG Export Plug-In . SVG Version: 6.00 Build 0)  -->
<!DOCTYPE svg PUBLIC "-//W3C//DTD SVG 1.1//EN" "http://www.w3.org/Graphics/SVG/1.1/DTD/svg11.dtd">
<svg version="1.1" id="Layer_1" xmlns="http://www.w3.org/2000/svg" xmlns:xlink="http://www.w3.org/1999/xlink" x="0px" y="0px"
	 viewBox="0 0 512 512" enable-background="new 0 0 512 512" xml:space="preserve" width="512" height="512">
<g>
	<path d="M226.571,236.24c-10.273,0-18.633-8.36-18.633-18.636s8.36-18.636,18.633-18.636c10.282,0,18.644,8.36,18.644,18.636
		S236.853,236.24,226.571,236.24z M226.571,207.818c-5.396,0-9.783,4.39-9.783,9.786s4.387,9.786,9.783,9.786
		c5.401,0,9.795-4.39,9.795-9.786S231.973,207.818,226.571,207.818z"/>
	<path d="M292.397,236.24c-10.279,0-18.639-8.36-18.639-18.636s8.36-18.636,18.639-18.636s18.639,8.36,18.639,18.636
		S302.676,236.24,292.397,236.24z M292.397,207.818c-5.399,0-9.789,4.39-9.789,9.786s4.39,9.786,9.789,9.786s9.789-4.39,9.789-9.786
		S297.796,207.818,292.397,207.818z"/>
	<path d="M255.996,415.998C167.775,415.998,96,344.223,96,256.001c0-88.224,71.775-159.999,159.996-159.999
		C344.222,96.002,416,167.777,416,256.001C416,344.223,344.222,415.998,255.996,415.998z M255.996,104.852
		c-83.341,0-151.146,67.805-151.146,151.149c0,83.342,67.805,151.147,151.146,151.147c83.347,0,151.155-67.805,151.155-151.147
		C407.15,172.657,339.342,104.852,255.996,104.852z"/>
	<path d="M367.47,331.534c-0.994,1.427-2.499,1.038-3.452-0.853c-18.253-38.61-62.831-65.503-107.383-64.807
		c-44.569-0.643-89.112,26.303-107.711,64.462c-0.969,1.861-2.443,2.278-3.375,0.894c0,0.001,0,0.001,0,0
		c-0.932-1.385-0.929-4.078,0.085-5.985c19.346-38.952,65.159-66.51,111.037-65.89c45.857-0.749,91.777,26.68,110.855,66.082
		C368.53,327.376,368.464,330.107,367.47,331.534L367.47,331.534z"/>
	<path d="M178.042,266.892L178.042,266.892c-4.313,0-8.092-2.786-10.109-7.453c-5.594-12.958,17.187-24.69,21.81-26.909l7.069-3.395
		l-0.749,7.807C193.944,259.024,185.365,266.892,178.042,266.892z M185.849,244.917c-6.13,4.068-10.797,8.681-9.792,11.012
		c0.441,1.021,1.196,2.113,1.985,2.113C179.808,258.042,183.579,254.562,185.849,244.917z"/>
</g>
</svg>
