<?xml version="1.0" encoding="utf-8"?>
<!-- Generator: Adobe Illustrator 17.1.0, SVG Export Plug-In . SVG Version: 6.00 Build 0)  -->
<!DOCTYPE svg PUBLIC "-//W3C//DTD SVG 1.1//EN" "http://www.w3.org/Graphics/SVG/1.1/DTD/svg11.dtd">
<svg version="1.1" id="Layer_1" xmlns="http://www.w3.org/2000/svg" xmlns:xlink="http://www.w3.org/1999/xlink" x="0px" y="0px"
	 viewBox="0 0 512 512" enable-background="new 0 0 512 512" xml:space="preserve" width="512" height="512">
<g>
	<path d="M226.579,236.24c-10.276,0-18.636-8.36-18.636-18.637c0-10.276,8.36-18.636,18.636-18.636s18.636,8.36,18.636,18.636
		C245.215,227.88,236.855,236.24,226.579,236.24z M226.579,207.817c-5.396,0-9.786,4.39-9.786,9.786c0,5.397,4.39,9.788,9.786,9.788
		s9.786-4.39,9.786-9.788C236.365,212.207,231.975,207.817,226.579,207.817z"/>
	<path d="M292.397,236.24c-10.277,0-18.637-8.36-18.637-18.637c0-10.276,8.36-18.636,18.637-18.636s18.637,8.36,18.637,18.636
		C311.034,227.88,302.674,236.24,292.397,236.24z M292.397,207.817c-5.397,0-9.788,4.39-9.788,9.786c0,5.397,4.39,9.788,9.788,9.788
		s9.788-4.39,9.788-9.788C302.185,212.207,297.794,207.817,292.397,207.817z"/>
	<path d="M255.998,415.999C167.774,415.999,96,344.225,96,256.001C96,167.776,167.774,96,255.998,96
		C344.223,96.001,416,167.776,416,256.001C416,344.225,344.223,415.999,255.998,415.999z M255.998,104.851
		c-83.344,0-151.148,67.806-151.148,151.151c0,83.344,67.804,151.148,151.148,151.148c83.345,0,151.152-67.804,151.152-151.148
		C407.15,172.656,339.343,104.851,255.998,104.851z"/>
	<path d="M370.76,279.268c1.834,0.578,2.556,3.48,1.484,6.371c-39.452,106.491-191.295,106.491-230.747,0
		c-1.074-2.895-0.35-5.794,1.484-6.371l0,0c1.839-0.581,4.051,1.213,5.053,3.913c37.216,100.457,180.456,100.456,217.672,0
		C366.708,280.486,368.921,278.686,370.76,279.268L370.76,279.268z"/>
</g>
</svg>
