<?xml version="1.0" encoding="utf-8"?>
<!-- Generator: Adobe Illustrator 17.1.0, SVG Export Plug-In . SVG Version: 6.00 Build 0)  -->
<!DOCTYPE svg PUBLIC "-//W3C//DTD SVG 1.1//EN" "http://www.w3.org/Graphics/SVG/1.1/DTD/svg11.dtd">
<svg version="1.1" id="Layer_1" xmlns="http://www.w3.org/2000/svg" xmlns:xlink="http://www.w3.org/1999/xlink" x="0px" y="0px"
	 viewBox="0 0 512 512" enable-background="new 0 0 512 512" xml:space="preserve" width="512" height="512">
<g>
	<path d="M256.001,416C167.776,416,96,344.224,96,256.001C96,167.776,167.776,96,256.001,96C344.225,96,416,167.776,416,256.001
		C416,344.224,344.225,416,256.001,416z M256.001,104.85c-83.345,0-151.152,67.806-151.152,151.152
		c0,83.342,67.806,151.149,151.152,151.149c83.344,0,151.149-67.806,151.149-151.149C407.15,172.656,339.345,104.85,256.001,104.85z
		"/>
	<path d="M370.763,279.269c1.839,0.579,2.558,3.479,1.484,6.373c-39.454,106.49-191.299,106.489-230.75-0.004
		c-1.073-2.892-0.354-5.791,1.486-6.37l0,0c1.84-0.58,4.052,1.214,5.054,3.911c37.215,100.456,180.453,100.458,217.67,0.003
		C366.71,280.485,368.924,278.686,370.763,279.269L370.763,279.269z"/>
	<path d="M251.112,229.387c-1.608,1.299-4.182,0.803-5.971-0.739c-11.234-9.803-28.136-9.802-39.369,0.003
		c-1.787,1.544-4.359,2.034-5.967,0.735l0,0c-1.606-1.289-1.261-4.358,1.061-6.378c14.032-12.249,35.146-12.25,49.179-0.004
		C252.369,225.026,252.719,228.098,251.112,229.387L251.112,229.387z"/>
	<path d="M316.933,229.387c-1.608,1.3-4.181,0.805-5.973-0.741c-11.233-9.8-28.13-9.8-39.363,0c-1.789,1.544-4.365,2.04-5.973,0.741
		l0,0c-1.606-1.292-1.256-4.362,1.069-6.385c14.032-12.242,35.14-12.242,49.171,0C318.192,225.029,318.539,228.097,316.933,229.387
		L316.933,229.387z"/>
	<path d="M110.003,137.311c-0.003,0-0.004,0-0.007,0c-17.391-0.003-32.374-14.058-39.508-27.982
		c-6.295-12.29-6.758-24.207-1.239-31.877c4.469-6.211,9.877-9.362,16.073-9.362c9.096,0,17.311,7.041,22.474,12.744
		c5.037-10.417,15.547-15.818,25.171-15.818c8.582,0,15.854,4.072,19.453,10.898c3.711,7.035,5.178,19.741-8.909,40.328
		C131.597,133.655,118.714,137.311,110.003,137.311z M85.321,77.038c-3.197,0-6.078,1.847-8.807,5.64
		c-3.468,4.818-2.725,13.467,1.939,22.57c5.893,11.503,17.934,23.112,31.546,23.115c0,0,0.003,0,0.004,0
		c9.537,0,18.324-5.776,26.122-17.172c8.893-13.001,11.948-24.335,8.379-31.102c-2.052-3.892-6.259-6.123-11.538-6.123
		c-7.945,0-17.273,5.307-18.975,16.957l-1.681,11.498l-6.467-9.66C102.914,88.387,93.518,77.038,85.321,77.038z"/>
	<path d="M392.423,119.856c-0.001,0-0.003,0-0.006,0c-24.468-0.003-39.439-20.569-45.291-39.815
		c-6.528-21.469-2.619-42.137,9.507-50.264c5.141-3.449,10.233-5.197,15.13-5.197c15.424,0,24.23,16.875,28.287,27.676
		c6.546-6.982,15.481-10.962,25.198-10.962c13.636,0,25.183,7.524,28.734,18.725c2.713,8.558,2.788,26.077-27.209,47.223
		C414.902,115.612,403.344,119.856,392.423,119.856z M371.763,33.529c-3.091,0-6.505,1.238-10.147,3.682
		c-8.742,5.858-11.234,22.777-5.928,40.226c4.92,16.179,17.152,33.468,36.732,33.47c0.001,0,0.003,0,0.004,0
		c9.039,0,18.86-3.694,29.193-10.976c18.508-13.047,27.194-26.61,23.834-37.208c-2.33-7.35-10.638-12.479-20.203-12.479
		c-9.668,0-18.007,5.089-22.876,13.962l-5.592,10.19l-2.686-11.314C392.144,54.864,384.33,33.529,371.763,33.529z"/>
</g>
</svg>
