<?xml version="1.0" encoding="utf-8"?>
<!-- Generator: Adobe Illustrator 17.1.0, SVG Export Plug-In . SVG Version: 6.00 Build 0)  -->
<!DOCTYPE svg PUBLIC "-//W3C//DTD SVG 1.1//EN" "http://www.w3.org/Graphics/SVG/1.1/DTD/svg11.dtd">
<svg version="1.1" id="Layer_1" xmlns="http://www.w3.org/2000/svg" xmlns:xlink="http://www.w3.org/1999/xlink" x="0px" y="0px"
	 viewBox="0 0 512 512" enable-background="new 0 0 512 512" xml:space="preserve" width="512" height="512">
<g>
	<path d="M256,96c-88.2,0-160,71.8-160,160s71.8,160,160,160s160-71.8,160-160S344.2,96,256,96z M266.6,223
		c14-12.2,35.1-12.2,49.2,0c2.4,2,2.7,5.1,1.1,6.4c-1.6,1.3-4.2,0.8-6-0.7c-11.2-9.8-28.1-9.8-39.4,0c-1.8,1.5-4.4,2-6,0.7
		C263.9,228.1,264.2,225,266.6,223z M200.8,223c14-12.2,35.1-12.2,49.2,0c2.4,2,2.7,5.1,1.1,6.4c-1.6,1.3-4.2,0.8-6-0.7
		c-11.2-9.8-28.1-9.8-39.4,0c-1.8,1.5-4.4,2-6,0.7C198.1,228.1,198.4,225,200.8,223z M141.5,285.7c-1.1-2.9-0.4-5.8,1.5-6.4
		c1.8-0.6,4.1,1.2,5.1,3.9c37.2,100.5,180.5,100.5,217.7,0c0.9-2.7,3.1-4.5,5-3.9c1.8,0.6,2.6,3.5,1.5,6.4
		C332.8,392.2,181,392.2,141.5,285.7z"/>
	<path d="M110,137.3L110,137.3c-17.4,0-32.4-14.1-39.5-28c-6.3-12.3-6.8-24.2-1.2-31.9c4.5-6.2,9.9-9.4,16.1-9.4
		c9.1,0,17.3,7,22.5,12.7c5-10.4,15.5-15.8,25.2-15.8c8.6,0,15.9,4.1,19.5,10.9c3.7,7,5.2,19.7-8.9,40.3
		C131.6,133.7,118.7,137.3,110,137.3z"/>
	<path d="M392.4,119.9L392.4,119.9c-24.5,0-39.4-20.6-45.3-39.8c-6.5-21.5-2.6-42.1,9.5-50.3c5.1-3.4,10.2-5.2,15.1-5.2
		c15.4,0,24.2,16.9,28.3,27.7c6.5-7,15.5-11,25.2-11c13.6,0,25.2,7.5,28.7,18.7c2.7,8.6,2.8,26.1-27.2,47.2
		C414.9,115.6,403.3,119.9,392.4,119.9z"/>
</g>
</svg>
