<?xml version="1.0" encoding="utf-8"?>
<!-- Generator: Adobe Illustrator 17.1.0, SVG Export Plug-In . SVG Version: 6.00 Build 0)  -->
<!DOCTYPE svg PUBLIC "-//W3C//DTD SVG 1.1//EN" "http://www.w3.org/Graphics/SVG/1.1/DTD/svg11.dtd">
<svg version="1.1" id="Layer_1" xmlns="http://www.w3.org/2000/svg" xmlns:xlink="http://www.w3.org/1999/xlink" x="0px" y="0px"
	 viewBox="0 0 512 512" enable-background="new 0 0 512 512" xml:space="preserve" width="512" height="512">
<g>
	<path d="M226.6,227.4c5.4,0,9.8-4.4,9.8-9.8c0-5.4-4.4-9.8-9.8-9.8c-5.4,0-9.8,4.4-9.8,9.8C216.8,223,221.2,227.4,226.6,227.4z"/>
	<path d="M292.4,180.9c-20.2,0-36.7,16.5-36.7,36.7c0,20.2,16.5,36.7,36.7,36.7c20.2,0,36.7-16.5,36.7-36.7
		C329.1,197.4,312.6,180.9,292.4,180.9z M292.4,236.2c-10.3,0-18.6-8.4-18.6-18.6c0-10.3,8.4-18.6,18.6-18.6
		c10.3,0,18.6,8.4,18.6,18.6C311,227.9,302.7,236.2,292.4,236.2z"/>
	<path d="M292.4,207.8c-5.4,0-9.8,4.4-9.8,9.8c0,5.4,4.4,9.8,9.8,9.8c5.4,0,9.8-4.4,9.8-9.8C302.2,212.2,297.8,207.8,292.4,207.8z"
		/>
	<path d="M256,96c-88.2,0-160,71.8-160,160s71.8,160,160,160c46.5,0,88.4-19.9,117.7-51.7V208.2H337c0.7,3.1,1,6.3,1,9.5
		c0,25.2-20.5,45.6-45.6,45.6c-25.2,0-45.6-20.5-45.6-45.6c0-25.2,20.5-45.6,45.6-45.6c18.8,0,34.9,11.4,41.9,27.7
		c0.3-0.1,0.7-0.1,1-0.1h41.9c2.3,0,4.2,1.9,4.2,4.2c0,0.3,0,0.5-0.1,0.8c0.1,0.3,0.1,0.6,0.1,0.9v149.7l-7.7,9v27.6
		c0,2.5,1.7,4.5,3.9,4.5c2.1,0,3.9-2,3.9-4.5v-36.7C403.1,328,416,293.5,416,256C416,167.8,344.2,96,256,96z M226.6,199
		c10.3,0,18.6,8.4,18.6,18.6c0,10.3-8.3,18.6-18.6,18.6c-10.3,0-18.6-8.4-18.6-18.6C208,207.3,216.4,199,226.6,199z M248.6,288.3
		c0.9-0.2,2.4,0.3,4.1,1c34.1,16.5,68.2-31,102.4-14.5c2.7,1.3,4.9,8,4.9,14.3c0,6.4-2.2,9.6-4.9,7.8
		c-34.1-21.8-68.2,20.2-102.4-1.6c-1.8-1.2-3.3-2.8-4.1-4.3c-0.9,1.4-2.4,3.1-4.2,4.3c-34.2,21.8-68.3-20.2-102.4,1.6
		c-2.7,1.8-4.9-1.4-4.9-7.8c0-6.3,2.2-13,4.9-14.3c34.2-16.5,68.3,31,102.4,14.5C246.2,288.5,247.7,288.1,248.6,288.3z"/>
</g>
</svg>
