<?xml version="1.0" encoding="utf-8"?>
<!-- Generator: Adobe Illustrator 17.1.0, SVG Export Plug-In . SVG Version: 6.00 Build 0)  -->
<!DOCTYPE svg PUBLIC "-//W3C//DTD SVG 1.1//EN" "http://www.w3.org/Graphics/SVG/1.1/DTD/svg11.dtd">
<svg version="1.1" id="Layer_1" xmlns="http://www.w3.org/2000/svg" xmlns:xlink="http://www.w3.org/1999/xlink" x="0px" y="0px"
	 viewBox="0 0 512 512" enable-background="new 0 0 512 512" xml:space="preserve" width="512" height="512">
<g>
	<path d="M226.581,236.232c-10.277,0-18.639-8.357-18.639-18.63c0-10.279,8.362-18.639,18.639-18.639
		c10.273,0,18.632,8.36,18.632,18.639C245.213,227.874,236.854,236.232,226.581,236.232z M226.581,207.812
		c-5.397,0-9.789,4.39-9.789,9.789c0,5.393,4.392,9.78,9.789,9.78c5.394,0,9.782-4.387,9.782-9.78
		C236.363,212.203,231.975,207.812,226.581,207.812z"/>
	<path d="M292.396,236.232c-10.273,0-18.632-8.357-18.632-18.63c0-10.279,8.359-18.639,18.632-18.639
		c10.279,0,18.64,8.36,18.64,18.639C311.037,227.874,302.675,236.232,292.396,236.232z M292.396,207.812
		c-5.394,0-9.782,4.39-9.782,9.789c0,5.393,4.388,9.78,9.782,9.78c5.399,0,9.791-4.387,9.791-9.78
		C302.187,212.203,297.795,207.812,292.396,207.812z"/>
	<path d="M137.068,289.084c0,6.361,2.202,9.602,4.915,7.836c34.122-21.845,68.244,20.212,102.368-1.625
		c2.714-1.769,4.912-4.817,4.912-6.2c0-1.4-2.198-1.026-4.912,0.233c-34.123,16.47-68.246-30.969-102.368-14.499
		C139.27,276.088,137.068,282.751,137.068,289.084z"/>
	<path d="M359.964,289.084c0,6.361-2.201,9.602-4.922,7.836c-34.112-21.845-68.238,20.212-102.359-1.625
		c-2.714-1.769-4.918-4.817-4.918-6.2c0-1.4,2.204-1.026,4.918,0.233c34.121,16.47,68.247-30.969,102.359-14.499
		C357.763,276.088,359.964,282.751,359.964,289.084z"/>
	<path d="M416,255.994c0-88.222-71.775-159.995-159.997-159.996C167.777,95.998,96,167.771,96,255.994
		c0,88.229,71.777,160.007,160.003,160.007c46.494,0,88.414-19.942,117.673-51.715v27.623c0,2.457,1.73,4.451,3.868,4.451
		c2.132,0,3.86-1.994,3.86-4.451v-36.658C403.052,327.955,416,293.46,416,255.994z M256.003,407.151
		c-83.345,0-151.153-67.809-151.153-151.157c0-83.343,67.808-151.146,151.153-151.146c83.342,0,151.147,67.804,151.147,151.146
		c0,31.189-9.496,60.2-25.746,84.298V205.597c0-0.301-0.027-0.595-0.077-0.88c0.054-0.27,0.084-0.549,0.084-0.834
		c0-2.342-1.895-4.238-4.242-4.238h-41.886c-0.332,0-0.652,0.047-0.962,0.12c-6.955-16.286-23.128-27.729-41.925-27.729
		c-25.12,0-45.557,20.439-45.557,45.566c0,25.121,20.436,45.56,45.557,45.56c25.124,0,45.565-20.44,45.565-45.56
		c0-3.249-0.348-6.417-0.997-9.475h36.713v142.616C345.946,385.118,303.502,407.151,256.003,407.151z M329.111,217.601
		c0,20.243-16.47,36.71-36.715,36.71c-20.241,0-36.708-16.466-36.708-36.71c0-20.246,16.467-36.716,36.708-36.716
		C312.641,180.885,329.111,197.355,329.111,217.601z"/>
</g>
</svg>
