<?xml version="1.0" encoding="utf-8"?>
<!-- Generator: Adobe Illustrator 17.1.0, SVG Export Plug-In . SVG Version: 6.00 Build 0)  -->
<!DOCTYPE svg PUBLIC "-//W3C//DTD SVG 1.1//EN" "http://www.w3.org/Graphics/SVG/1.1/DTD/svg11.dtd">
<svg version="1.1" id="Layer_1" xmlns="http://www.w3.org/2000/svg" xmlns:xlink="http://www.w3.org/1999/xlink" x="0px" y="0px"
	 viewBox="0 0 512 512" enable-background="new 0 0 512 512" xml:space="preserve" width="512" height="512">
<g>
	<path d="M361.1,135.5V13.3l-36.3,32.1l-31.4-33.7L258,43.4l-35.3-31.5l-33.5,32.7L152.6,7v126.9C116.6,164.4,96,208.8,96,256
		c0,88.2,71.8,160,160,160s160-71.8,160-160C416,209.7,396,165.9,361.1,135.5z M292.4,199c10.2,0,18.6,8.3,18.6,18.6
		c0.1,10.2-8.3,18.6-18.6,18.6c-10.3,0-18.6-8.4-18.6-18.6S282.1,199,292.4,199z M226.6,199c10.2,0,18.6,8.3,18.6,18.6
		c0,10.2-8.3,18.6-18.6,18.6c-10.3,0-18.6-8.4-18.6-18.6S216.3,199,226.6,199z M141.4,285.7c-1.1-2.9-0.3-5.8,1.5-6.4
		c1.9-0.6,4.1,1.2,5.1,3.9c37.3,100.5,180.5,100.5,217.7,0c1-2.7,3.3-4.5,5.1-3.9c1.8,0.5,2.5,3.4,1.4,6.4
		C332.7,392.2,180.9,392.2,141.4,285.7z"/>
	<path d="M226.6,227.4c5.4,0,9.8-4.4,9.8-9.8c0-5.4-4.4-9.8-9.8-9.8c-5.4,0-9.8,4.4-9.8,9.8C216.8,223,221.2,227.4,226.6,227.4z"/>
	<path d="M292.4,227.4c5.4,0,9.8-4.4,9.8-9.8c0-5.4-4.4-9.8-9.8-9.8c-5.4,0-9.8,4.4-9.8,9.8C282.6,223,287,227.4,292.4,227.4z"/>
</g>
</svg>
