<?xml version="1.0" encoding="utf-8"?>
<!-- Generator: Adobe Illustrator 17.1.0, SVG Export Plug-In . SVG Version: 6.00 Build 0)  -->
<!DOCTYPE svg PUBLIC "-//W3C//DTD SVG 1.1//EN" "http://www.w3.org/Graphics/SVG/1.1/DTD/svg11.dtd">
<svg version="1.1" id="Layer_1" xmlns="http://www.w3.org/2000/svg" xmlns:xlink="http://www.w3.org/1999/xlink" x="0px" y="0px"
	 viewBox="0 0 512 512" enable-background="new 0 0 512 512" xml:space="preserve" width="512" height="512">
<g>
	<g>
		<path d="M226.575,236.241c-10.276,0-18.636-8.36-18.636-18.636c0-10.276,8.36-18.636,18.636-18.636s18.636,8.36,18.636,18.636
			C245.211,227.88,236.851,236.241,226.575,236.241z M226.575,207.819c-5.396,0-9.786,4.39-9.786,9.786s4.39,9.786,9.786,9.786
			s9.786-4.39,9.786-9.786S231.971,207.819,226.575,207.819z"/>
	</g>
	<g>
		<path d="M292.39,236.241c-10.273,0-18.633-8.36-18.633-18.636c0-10.276,8.36-18.636,18.633-18.636
			c10.284,0,18.65,8.36,18.65,18.636C311.041,227.88,302.675,236.241,292.39,236.241z M292.39,207.819
			c-5.396,0-9.783,4.39-9.783,9.786s4.387,9.786,9.783,9.786c5.404,0,9.801-4.39,9.801-9.786S297.795,207.819,292.39,207.819z"/>
	</g>
	<g>
		<path d="M370.767,279.266c1.836,0.581,2.557,3.467,1.487,6.35c-39.441,106.511-191.296,106.522-230.761,0.035
			c-1.078-2.9-0.363-5.806,1.474-6.385l0,0c1.839-0.581,4.062,1.216,5.068,3.924c37.227,100.45,180.472,100.439,217.676-0.032
			C366.708,280.471,368.928,278.687,370.767,279.266L370.767,279.266z"/>
	</g>
	<g>
		<g>
			<path d="M256,416c-88.225,0-160-71.775-160-160c0-47.911,21.211-92.903,58.192-123.437l5.635,6.822
				C124.889,168.233,104.85,210.737,104.85,256c0,83.345,67.806,151.15,151.15,151.15S407.15,339.345,407.15,256
				c0-44.37-19.425-86.341-53.298-115.152l5.733-6.741C395.437,164.604,416,209.031,416,256C416,344.225,344.225,416,256,416z"/>
		</g>
		<g>
			<path d="M361.144,147.048l-7.291-6.199c-27.296-23.211-62.047-35.996-97.852-35.996c-35.036,0-69.191,12.264-96.173,34.535
				l-7.242,5.975V7.044l36.661,37.511l33.452-32.709l35.287,31.536l35.443-31.666l31.421,33.677l36.295-32.072V147.048z M256,96.003
				c34.783,0,68.627,11.396,96.294,32.262V32.951l-28.039,24.778l-31.392-33.642l-34.878,31.165l-35.016-31.294l-33.867,33.112
				l-27.667-28.31v98.169C188.745,106.927,221.981,96.003,256,96.003z"/>
		</g>
	</g>
</g>
</svg>
