<?xml version="1.0" encoding="utf-8"?>
<!-- Generator: Adobe Illustrator 17.1.0, SVG Export Plug-In . SVG Version: 6.00 Build 0)  -->
<!DOCTYPE svg PUBLIC "-//W3C//DTD SVG 1.1//EN" "http://www.w3.org/Graphics/SVG/1.1/DTD/svg11.dtd">
<svg version="1.1" id="Layer_1" xmlns="http://www.w3.org/2000/svg" xmlns:xlink="http://www.w3.org/1999/xlink" x="0px" y="0px"
	 viewBox="0 0 512 512" enable-background="new 0 0 512 512" xml:space="preserve" width="512" height="512">
<g>
	<path d="M257.3,329.4l-2.9,2.8l-3.1-2.6c-3.9-3.3-7.8-5-11.4-5c-5.7,0.1-10.3,4.3-12.8,7.1c8.2,9.1,17,13.7,26.1,13.7
		c13,0,24-9.1,28.9-13.9c-4.6-4.2-9.3-6.4-13.9-6.4C261.8,325.1,257.4,329.4,257.3,329.4z"/>
	<path d="M256,96c-88.2,0-160,71.8-160,160s71.8,160,160,160s160-71.8,160-160S344.2,96,256,96z M199.8,229.6
		c-1.6-1.3-1.2-4.4,1.1-6.4c0.1-0.1,0.3-0.2,0.4-0.3c-11.2-1.9-21.3-5.3-30.3-9.5c-1.8-0.9-2.7-2.2-2-3c0.7-0.8,2.7-0.9,4.4-0.2
		c7.6,2.9,16,5.3,25.1,6.6c-5.9-1.9-11.3-4.1-16.2-6.6c-1.4-0.7-2-1.7-1.4-2.3c0.6-0.6,2.1-0.6,3.4-0.1c5.2,2.2,10.9,4.2,17.2,5.6
		c-2-1-3.8-1.9-5.5-2.9c-1-0.6-1.3-1.4-0.8-1.8c0.5-0.4,1.7-0.4,2.6,0c5.1,2.4,10.9,4.8,17.9,6.4c11.7-3.1,24.7-0.5,34.3,7.9
		c2.4,2,2.7,5.1,1.2,6.6c-1.6,1.3-4.2,0.8-6-0.7c-11.3-9.8-28.2-9.8-39.4,0C204,230.4,201.4,230.9,199.8,229.6z M291.7,334.2
		c-0.7,0.8-16.7,20.1-38.4,20.1c-12.8,0-24.7-6.6-35.2-19.6l-2-2.4l1.6-2.7c0.3-0.6,8.6-13.8,22.3-13.8c4.8,0,9.6,1.6,14.2,4.9
		c3-2,7.9-4.4,14.1-4.4c8.1,0,16,4.1,23.3,12.2l2.5,2.8L291.7,334.2z M345.8,213c-9,4.3-19.1,7.6-30.3,9.5c0.2,0.1,0.3,0.2,0.4,0.3
		c2.4,2,2.7,5.1,1.1,6.4c-1.6,1.3-4.2,0.8-6-0.7c-11.3-9.8-28.2-9.8-39.4,0c-1.8,1.5-4.4,2-6,0.7c-1.6-1.3-1.2-4.4,1.1-6.4
		c9.6-8.4,22.6-11,34.3-7.9c7-1.6,12.8-4,17.9-6.4c0.9-0.4,2.1-0.4,2.6,0c0.5,0.5,0.2,1.2-0.8,1.8c-1.7,1-3.6,2-5.5,2.9
		c6.3-1.4,12-3.4,17.2-5.6c1.3-0.5,2.8-0.5,3.4,0.1c0.6,0.6,0.1,1.6-1.3,2.3c-4.9,2.5-10.3,4.8-16.2,6.6c9.1-1.3,17.4-3.7,25.1-6.6
		c1.8-0.7,3.7-0.6,4.4,0.2C348.5,211,347.6,212.3,345.8,213z"/>
</g>
</svg>
