<?xml version="1.0" encoding="utf-8"?>
<!-- Generator: Adobe Illustrator 17.1.0, SVG Export Plug-In . SVG Version: 6.00 Build 0)  -->
<!DOCTYPE svg PUBLIC "-//W3C//DTD SVG 1.1//EN" "http://www.w3.org/Graphics/SVG/1.1/DTD/svg11.dtd">
<svg version="1.1" id="Layer_1" xmlns="http://www.w3.org/2000/svg" xmlns:xlink="http://www.w3.org/1999/xlink" x="0px" y="0px"
	 viewBox="0 0 512 512" enable-background="new 0 0 512 512" xml:space="preserve" width="512" height="512">
<g>
	<path d="M256,416c-88.222,0-159.994-71.778-159.994-160.006C96.006,167.772,167.778,96,256,96s159.994,71.772,159.994,159.994
		C415.994,344.222,344.222,416,256,416z M256,104.85c-83.342,0-151.144,67.803-151.144,151.144
		c0,83.348,67.803,151.156,151.144,151.156s151.144-67.808,151.144-151.156C407.144,172.652,339.342,104.85,256,104.85z"/>
	<path d="M347.834,210.213c-0.693-0.774-2.637-0.867-4.385-0.209c-7.659,2.94-16.002,5.295-25.117,6.608
		c5.931-1.817,11.32-4.077,16.206-6.565c1.37-0.71,1.938-1.739,1.344-2.311c-0.594-0.566-2.093-0.612-3.413-0.064
		c-5.198,2.19-10.892,4.164-17.206,5.598c1.928-0.932,3.756-1.893,5.478-2.864c1.002-0.571,1.336-1.341,0.831-1.753
		c-0.534-0.405-1.678-0.414-2.633,0.033c-5.058,2.401-10.915,4.774-17.937,6.407c-11.723-3.132-24.688-0.497-34.32,7.906
		c-2.32,2.018-2.677,5.094-1.069,6.385c1.613,1.303,4.19,0.802,5.975-0.739c11.234-9.801,28.135-9.8,39.368,0.002
		c1.791,1.545,4.36,2.041,5.973,0.737c1.61-1.292,1.259-4.359-1.066-6.382c-0.12-0.105-0.245-0.202-0.367-0.305
		c11.236-1.862,21.313-5.247,30.313-9.476C347.649,212.337,348.516,210.99,347.834,210.213z"/>
	<path d="M250.046,223.002c-9.629-8.403-22.589-11.041-34.311-7.916c-6.996-1.636-12.841-4.005-17.888-6.401
		c-0.95-0.443-2.108-0.443-2.626-0.04c-0.516,0.42-0.179,1.187,0.835,1.757c1.716,0.97,3.539,1.929,5.461,2.859
		c-6.312-1.432-12.002-3.406-17.204-5.596c-1.307-0.541-2.811-0.5-3.41,0.07c-0.588,0.576-0.029,1.602,1.351,2.31
		c4.885,2.489,10.274,4.748,16.207,6.566c-9.114-1.314-17.46-3.668-25.123-6.607c-1.746-0.656-3.679-0.564-4.379,0.208
		c-0.691,0.778,0.176,2.126,2.008,3.007c8.996,4.223,19.05,7.602,30.268,9.464c-0.124,0.106-0.252,0.205-0.376,0.313
		c-2.31,2.009-2.681,5.096-1.072,6.388c1.612,1.302,4.2,0.792,5.978-0.741c11.236-9.802,28.139-9.8,39.374,0.004
		c1.791,1.546,4.36,2.04,5.972,0.737C252.719,228.095,252.372,225.024,250.046,223.002z"/>
	<path d="M253.281,354.273c-12.797,0-24.654-6.58-35.244-19.561l-1.988-2.434l1.645-2.679c0.346-0.562,8.605-13.762,22.28-13.762
		c4.802,0,9.579,1.633,14.237,4.863c2.953-1.994,7.85-4.448,14.053-4.448c8.147,0,15.986,4.102,23.297,12.194l2.55,2.823
		l-2.408,2.947C291.031,335.035,275.045,354.273,253.281,354.273z M227.137,331.736c8.196,9.086,16.977,13.687,26.143,13.687
		c12.972,0,23.965-9.124,28.857-13.932c-4.627-4.243-9.282-6.39-13.874-6.39c-6.421,0-10.843,4.284-10.887,4.33l-2.878,2.835
		l-3.111-2.584c-3.921-3.316-7.761-4.995-11.414-4.995C234.175,324.687,229.574,328.905,227.137,331.736z"/>
</g>
</svg>
