<?xml version="1.0" encoding="utf-8"?>
<!-- Generator: Adobe Illustrator 17.1.0, SVG Export Plug-In . SVG Version: 6.00 Build 0)  -->
<!DOCTYPE svg PUBLIC "-//W3C//DTD SVG 1.1//EN" "http://www.w3.org/Graphics/SVG/1.1/DTD/svg11.dtd">
<svg version="1.1" id="Layer_1" xmlns="http://www.w3.org/2000/svg" xmlns:xlink="http://www.w3.org/1999/xlink" x="0px" y="0px"
	 viewBox="0 0 512 512" enable-background="new 0 0 512 512" xml:space="preserve" width="512" height="512">
<g>
	<path d="M226.582,236.244c-10.276,0-18.636-8.363-18.636-18.644c0-10.273,8.36-18.633,18.636-18.633s18.636,8.36,18.636,18.633
		C245.217,227.881,236.857,236.244,226.582,236.244z M226.582,207.816c-5.396,0-9.786,4.387-9.786,9.783
		c0,5.401,4.39,9.795,9.786,9.795s9.786-4.393,9.786-9.795C236.368,212.204,231.977,207.816,226.582,207.816z"/>
	<path d="M292.398,236.244c-10.276,0-18.636-8.363-18.636-18.644c0-10.273,8.36-18.633,18.636-18.633s18.636,8.36,18.636,18.633
		C311.034,227.881,302.674,236.244,292.398,236.244z M292.398,207.816c-5.396,0-9.786,4.387-9.786,9.783
		c0,5.401,4.39,9.795,9.786,9.795s9.786-4.393,9.786-9.795C302.184,212.204,297.794,207.816,292.398,207.816z"/>
	<path d="M256,415.997c-88.223,0-160-71.774-160-159.997S167.777,96.003,256,96.003S416,167.777,416,256
		S344.223,415.997,256,415.997z M256,104.853c-83.343,0-151.15,67.804-151.15,151.147S172.657,407.147,256,407.147
		S407.15,339.343,407.15,256S339.343,104.853,256,104.853z"/>
	<path d="M370.76,279.266c1.835,0.576,2.554,3.478,1.485,6.364c-39.447,106.495-191.293,106.498-230.746,0.008
		c-1.073-2.893-0.352-5.795,1.482-6.372l0,0c1.842-0.582,4.052,1.214,5.055,3.915c37.218,100.456,180.46,100.453,217.672-0.008
		C366.707,280.48,368.918,278.684,370.76,279.266L370.76,279.266z"/>
	<path d="M350.653,368.413c0,0,0,0-0.003,0c-15.199-0.003-34.203-17.135-34.203-23.634c0-2.616,1.965-4.693,4.543-4.897
		c3.198-1.213,15-11.946,24.216-21.404l2.91-2.984l3.154,2.725c1.864,1.613,18.241,16.19,18.546,30.983
		c0.112,5.393-1.979,10.264-6.047,14.087C360.145,366.69,355.732,368.413,350.653,368.413z M327.143,346.476
		c4.433,4.866,14.899,13.087,23.51,13.087l0,0c2.794,0,5.105-0.89,7.058-2.725c2.282-2.143,3.316-4.508,3.258-7.444
		c-0.15-7.484-7.464-16.521-12.485-21.629C337.54,338.773,331.058,343.996,327.143,346.476z"/>
</g>
</svg>
