<?xml version="1.0" encoding="utf-8"?>
<!-- Generator: Adobe Illustrator 17.1.0, SVG Export Plug-In . SVG Version: 6.00 Build 0)  -->
<!DOCTYPE svg PUBLIC "-//W3C//DTD SVG 1.1//EN" "http://www.w3.org/Graphics/SVG/1.1/DTD/svg11.dtd">
<svg version="1.1" id="Layer_1" xmlns="http://www.w3.org/2000/svg" xmlns:xlink="http://www.w3.org/1999/xlink" x="0px" y="0px"
	 viewBox="0 0 512 512" enable-background="new 0 0 512 512" xml:space="preserve" width="512" height="512">
<g>
	<path d="M292.4,227.4c5.4,0,9.8-4.4,9.8-9.8c0-5.4-4.4-9.8-9.8-9.8c-5.4,0-9.8,4.4-9.8,9.8C282.6,223,287,227.4,292.4,227.4z"/>
	<path d="M226.6,227.4c5.4,0,9.8-4.4,9.8-9.8c0-5.4-4.4-9.8-9.8-9.8c-5.4,0-9.8,4.4-9.8,9.8C216.8,223,221.2,227.4,226.6,227.4z"/>
	<path d="M327.1,346.5c4.4,4.9,14.9,13.1,23.5,13.1c2.8,0,5.1-0.9,7.1-2.7c2.3-2.1,3.3-4.5,3.3-7.4c-0.1-7.5-7.5-16.5-12.5-21.6
		C337.5,338.8,331.1,344,327.1,346.5z"/>
	<path d="M256,96c-88.2,0-160,71.8-160,160s71.8,160,160,160s160-71.8,160-160S344.2,96,256,96z M292.4,199
		c10.2,0,18.6,8.4,18.6,18.6c0,10.3-8.3,18.6-18.6,18.6c-10.3,0-18.6-8.4-18.6-18.6C273.8,207.3,282.2,199,292.4,199z M226.6,199
		c10.2,0,18.6,8.4,18.6,18.6c0,10.3-8.3,18.6-18.6,18.6c-10.3,0-18.6-8.4-18.6-18.6C208,207.3,216.4,199,226.6,199z M369.8,349.2
		c0.1,5.4-2,10.3-6,14.1c-3.7,3.4-8.1,5.1-13.1,5.1c-12.2,0-26.9-11.1-32.2-18.8c-61.1,34.4-148.4,13.1-176.9-63.9
		c-1.1-2.9-0.4-5.8,1.5-6.4c1.8-0.6,4.1,1.2,5.1,3.9c27.2,73.5,111.3,93.3,169,59.2c0.8-1.4,2.2-2.3,3.8-2.5
		c0.2-0.1,0.4-0.2,0.6-0.3c1-0.7,2-1.3,3-2c5.1-3.9,13.6-11.8,20.6-19.1l1.8-1.9c7.7-9.5,14.1-20.6,18.9-33.4c0.8-2.7,3-4.5,4.9-3.9
		c1.8,0.6,2.6,3.5,1.5,6.4c-4.8,13-11.3,24.4-19.1,34.2C358.1,324.5,369.5,336.8,369.8,349.2z"/>
</g>
</svg>
