<?xml version="1.0" encoding="utf-8"?>
<!-- Generator: Adobe Illustrator 17.1.0, SVG Export Plug-In . SVG Version: 6.00 Build 0)  -->
<!DOCTYPE svg PUBLIC "-//W3C//DTD SVG 1.1//EN" "http://www.w3.org/Graphics/SVG/1.1/DTD/svg11.dtd">
<svg version="1.1" id="Layer_1" xmlns="http://www.w3.org/2000/svg" xmlns:xlink="http://www.w3.org/1999/xlink" x="0px" y="0px"
	 viewBox="0 0 512 512" enable-background="new 0 0 512 512" xml:space="preserve" width="512" height="512">
<path d="M256,96c-88.2,0-160,71.8-160,160s71.8,160,160,160s160-71.8,160-160S344.2,96,256,96z M266.6,223c14-12.2,35.1-12.2,49.2,0
	c2.4,2,2.7,5.1,1.1,6.4c-1.6,1.3-4.2,0.8-6-0.7c-11.2-9.8-28.1-9.8-39.4,0c-1.8,1.5-4.4,2-6,0.7C263.9,228.1,264.2,225,266.6,223z
	 M200.8,223c14-12.2,35.1-12.2,49.2,0c2.4,2,2.7,5.1,1.1,6.4c-1.6,1.3-4.2,0.8-6-0.7c-11.2-9.8-28.1-9.8-39.4,0
	c-1.8,1.5-4.4,2-6,0.7C198.1,228.1,198.4,225,200.8,223z M141.6,285.7c-1.1-2.9-0.4-5.8,1.5-6.4c1.8-0.6,4.1,1.2,5.1,3.9
	c37.2,100.5,180.5,100.5,217.7,0c0.8-2.7,3-4.5,4.9-3.9c1.8,0.6,2.6,3.5,1.5,6.4C332.8,392.2,181,392.2,141.6,285.7z"/>
</svg>
