<?xml version="1.0" encoding="utf-8"?>
<!-- Generator: Adobe Illustrator 17.1.0, SVG Export Plug-In . SVG Version: 6.00 Build 0)  -->
<!DOCTYPE svg PUBLIC "-//W3C//DTD SVG 1.1//EN" "http://www.w3.org/Graphics/SVG/1.1/DTD/svg11.dtd">
<svg version="1.1" id="Layer_1" xmlns="http://www.w3.org/2000/svg" xmlns:xlink="http://www.w3.org/1999/xlink" x="0px" y="0px"
	 viewBox="0 0 512 512" enable-background="new 0 0 512 512" xml:space="preserve" width="512" height="512">
<g>
	<path d="M255.998,415.998C167.774,415.998,96,344.222,96,256S167.774,96.002,255.998,96.002C344.223,96.002,416,167.778,416,256
		S344.223,415.998,255.998,415.998z M255.998,104.852c-83.344,0-151.148,67.806-151.148,151.148s67.804,151.148,151.148,151.148
		c83.345,0,151.152-67.806,151.152-151.148S339.343,104.852,255.998,104.852z"/>
	<path d="M370.761,279.267c1.834,0.579,2.555,3.48,1.483,6.368c-39.45,106.492-191.297,106.491-230.746-0.002
		c-1.072-2.889-0.35-5.789,1.484-6.366l0,0c1.842-0.581,4.052,1.213,5.053,3.908c37.214,100.46,180.456,100.461,217.671,0.002
		C366.708,280.486,368.919,278.684,370.761,279.267L370.761,279.267z"/>
	<path d="M251.111,229.387c-1.61,1.303-4.184,0.807-5.97-0.734c-11.233-9.804-28.134-9.805-39.367-0.002
		c-1.788,1.543-4.363,2.038-5.973,0.737l0,0c-1.609-1.293-1.257-4.36,1.066-6.383c14.034-12.245,35.148-12.245,49.181,0.003
		C252.369,225.027,252.719,228.095,251.111,229.387L251.111,229.387z"/>
	<path d="M316.933,229.387c-1.61,1.302-4.185,0.806-5.971-0.736c-11.233-9.803-28.134-9.803-39.368-0.001
		c-1.788,1.543-4.363,2.038-5.973,0.737l0,0c-1.609-1.293-1.257-4.36,1.066-6.383c14.034-12.246,35.148-12.245,49.181,0.001
		C318.19,225.028,318.542,228.095,316.933,229.387L316.933,229.387z"/>
</g>
</svg>
