<?xml version="1.0" encoding="utf-8"?>
<!-- Generator: Adobe Illustrator 17.1.0, SVG Export Plug-In . SVG Version: 6.00 Build 0)  -->
<!DOCTYPE svg PUBLIC "-//W3C//DTD SVG 1.1//EN" "http://www.w3.org/Graphics/SVG/1.1/DTD/svg11.dtd">
<svg version="1.1" id="Layer_1" xmlns="http://www.w3.org/2000/svg" xmlns:xlink="http://www.w3.org/1999/xlink" x="0px" y="0px"
	 viewBox="0 0 512 512" enable-background="new 0 0 512 512" xml:space="preserve" width="512" height="512">
<g>
	<path d="M226.579,236.24c-10.276,0-18.636-8.36-18.636-18.639c0-10.273,8.36-18.633,18.636-18.633
		c10.274,0,18.635,8.36,18.635,18.633C245.213,227.88,236.853,236.24,226.579,236.24z M226.579,207.818
		c-5.396,0-9.786,4.387-9.786,9.783c0,5.399,4.39,9.789,9.786,9.789s9.785-4.39,9.785-9.789
		C236.364,212.206,231.975,207.818,226.579,207.818z"/>
	<path d="M256.001,415.998C167.776,415.998,96,344.225,96,256.003c0-88.225,71.776-160.001,160.001-160.001
		C344.224,96.002,416,167.778,416,256.003C416,344.225,344.224,415.998,256.001,415.998z M256.001,104.852
		c-83.345,0-151.151,67.806-151.151,151.151c0,83.342,67.806,151.145,151.151,151.145c83.344,0,151.149-67.803,151.149-151.145
		C407.15,172.658,339.344,104.852,256.001,104.852z"/>
	<path d="M108.428,220.543l-4.05-7.87c0.382-0.196,38.818-19.895,89.765-38.649c68.618-25.256,126.078-36.932,170.787-34.636
		l-0.449,8.838C260.475,142.919,109.937,219.765,108.428,220.543z"/>
	<path d="M306.336,247.816c-11.99,0-22.963-3.42-32.756-10.233c-31.505-21.917-39.578-71.058-39.905-73.141l8.74-1.38
		c0.075,0.472,7.842,47.539,36.242,67.273c11.394,7.916,24.781,10.394,39.793,7.369c14.924-3.008,25.51-10.146,31.464-21.223
		c14.894-27.705-2.597-71.565-2.776-72.006l8.197-3.333c0.794,1.95,19.238,48.118,2.385,79.508
		c-7.26,13.52-19.883,22.177-37.523,25.731C315.442,247.337,310.817,247.816,306.336,247.816z"/>
	<path d="M370.76,279.27c1.836,0.579,2.557,3.475,1.483,6.368c-39.45,106.492-191.296,106.491-230.745-0.002
		c-1.073-2.891-0.353-5.789,1.484-6.366l0,0c1.842-0.582,4.052,1.212,5.053,3.908c37.213,100.46,180.455,100.46,217.67,0.002
		C366.709,280.48,368.918,278.687,370.76,279.27L370.76,279.27z"/>
</g>
</svg>
