<?xml version="1.0" encoding="utf-8"?>
<!-- Generator: Adobe Illustrator 17.1.0, SVG Export Plug-In . SVG Version: 6.00 Build 0)  -->
<!DOCTYPE svg PUBLIC "-//W3C//DTD SVG 1.1//EN" "http://www.w3.org/Graphics/SVG/1.1/DTD/svg11.dtd">
<svg version="1.1" id="Layer_1" xmlns="http://www.w3.org/2000/svg" xmlns:xlink="http://www.w3.org/1999/xlink" x="0px" y="0px"
	 viewBox="0 0 512 512" enable-background="new 0 0 512 512" xml:space="preserve" width="512" height="512">
<g>
	<path d="M226.6,227.4c5.4,0,9.8-4.4,9.8-9.8c0-5.4-4.4-9.8-9.8-9.8c-5.4,0-9.8,4.4-9.8,9.8C216.8,223,221.2,227.4,226.6,227.4z"/>
	<path d="M256,96c-88.2,0-160,71.8-160,160s71.8,160,160,160s160-71.8,160-160S344.2,96,256,96z M226.6,199
		c10.3,0,18.6,8.4,18.6,18.6c0,10.3-8.3,18.6-18.6,18.6c-10.3,0-18.6-8.4-18.6-18.6C208,207.3,216.4,199,226.6,199z M304.4,352.8
		c-1.3,1.9-4,2.4-5.9,1.1l-42.4-29.1l-35.5,26.5c-1.7,1.2-4,1-5.1-0.6c-1.2-1.5-0.7-3.8,0.9-5.1l33.6-25L212.7,295
		c-1.9-1.3-2.4-4-1.1-5.9c1.3-1.9,4-2.4,5.9-1.1l39.7,27.3l33.4-24.9c1.6-1.3,3.9-1.1,5.1,0.5c1.2,1.6,0.7,3.8-0.9,5.1l-31.5,23.5
		l40,27.4C305.2,348.2,305.7,350.8,304.4,352.8z M292.4,236.2c-10.3,0-18.6-8.4-18.6-18.6c0-10.3,8.4-18.6,18.6-18.6
		c10.3,0,18.6,8.4,18.6,18.6C311,227.9,302.7,236.2,292.4,236.2z"/>
	<path d="M292.4,207.8c-5.4,0-9.8,4.4-9.8,9.8c0,5.4,4.4,9.8,9.8,9.8c5.4,0,9.8-4.4,9.8-9.8C302.2,212.2,297.8,207.8,292.4,207.8z"
		/>
</g>
</svg>
