<?xml version="1.0" encoding="utf-8"?>
<!-- Generator: Adobe Illustrator 17.1.0, SVG Export Plug-In . SVG Version: 6.00 Build 0)  -->
<!DOCTYPE svg PUBLIC "-//W3C//DTD SVG 1.1//EN" "http://www.w3.org/Graphics/SVG/1.1/DTD/svg11.dtd">
<svg version="1.1" id="Layer_1" xmlns="http://www.w3.org/2000/svg" xmlns:xlink="http://www.w3.org/1999/xlink" x="0px" y="0px"
	 viewBox="0 0 512 512" enable-background="new 0 0 512 512" xml:space="preserve" width="512" height="512">
<g>
	<path d="M226.58,236.238c-10.274,0-18.634-8.361-18.634-18.64c0-10.274,8.361-18.634,18.634-18.634
		c10.279,0,18.643,8.361,18.643,18.634C245.222,227.877,236.859,236.238,226.58,236.238z M226.58,207.814
		c-5.396,0-9.784,4.388-9.784,9.784c0,5.399,4.388,9.79,9.784,9.79c5.399,0,9.792-4.391,9.792-9.79
		C236.372,212.202,231.979,207.814,226.58,207.814z"/>
	<path d="M292.401,236.238c-10.276,0-18.637-8.361-18.637-18.64c0-10.274,8.361-18.634,18.637-18.634
		c10.279,0,18.64,8.361,18.64,18.634C311.041,227.877,302.68,236.238,292.401,236.238z M292.401,207.814
		c-5.396,0-9.787,4.388-9.787,9.784c0,5.399,4.391,9.79,9.787,9.79c5.399,0,9.789-4.391,9.789-9.79
		C302.19,212.202,297.8,207.814,292.401,207.814z"/>
	<path d="M256,416.004c-88.224,0-160-71.773-160-159.994c0-88.232,71.776-160.014,160-160.014s160,71.782,160,160.014
		C416,344.231,344.224,416.004,256,416.004z M256,104.846c-83.343,0-151.15,67.812-151.15,151.164
		c0,83.34,67.806,151.144,151.15,151.144s151.15-67.803,151.15-151.144C407.15,172.658,339.343,104.846,256,104.846z"/>
	<path d="M304.406,352.753c-1.337,1.933-3.99,2.429-5.912,1.098l-85.781-58.919c-1.939-1.337-2.432-3.984-1.104-5.917l0,0
		c1.325-1.945,3.984-2.429,5.918-1.104l85.781,58.922C305.247,348.169,305.737,350.817,304.406,352.753L304.406,352.753z"/>
	<path d="M295.662,290.855c1.158,1.559,0.732,3.823-0.936,5.065l-74.191,55.254c-1.671,1.239-3.967,0.994-5.119-0.556l0,0
		c-1.158-1.547-0.738-3.82,0.945-5.071l74.176-55.242C292.219,289.066,294.51,289.308,295.662,290.855L295.662,290.855z"/>
</g>
</svg>
