<?xml version="1.0" encoding="utf-8"?>
<!-- Generator: Adobe Illustrator 17.1.0, SVG Export Plug-In . SVG Version: 6.00 Build 0)  -->
<!DOCTYPE svg PUBLIC "-//W3C//DTD SVG 1.1//EN" "http://www.w3.org/Graphics/SVG/1.1/DTD/svg11.dtd">
<svg version="1.1" id="Layer_1" xmlns="http://www.w3.org/2000/svg" xmlns:xlink="http://www.w3.org/1999/xlink" x="0px" y="0px"
	 viewBox="0 0 512 512" enable-background="new 0 0 512 512" xml:space="preserve" width="512" height="512">
<g>
	<path d="M226.575,236.238c-10.278,0-18.641-8.36-18.641-18.638s8.363-18.638,18.641-18.638s18.638,8.36,18.638,18.638
		S236.853,236.238,226.575,236.238z M226.575,207.811c-5.398,0-9.792,4.39-9.792,9.789s4.393,9.789,9.792,9.789
		s9.789-4.39,9.789-9.789S231.973,207.811,226.575,207.811z"/>
	<path d="M292.394,236.238c-10.278,0-18.641-8.36-18.641-18.638s8.363-18.638,18.641-18.638s18.638,8.36,18.638,18.638
		S302.672,236.238,292.394,236.238z M292.394,207.811c-5.398,0-9.792,4.39-9.792,9.789s4.393,9.789,9.792,9.789
		c5.398,0,9.789-4.39,9.789-9.789S297.792,207.811,292.394,207.811z"/>
	<path d="M255.999,415.996C167.776,415.996,96,344.222,96,256S167.776,96.004,255.999,96.004C344.224,96.004,416,167.778,416,256
		S344.224,415.996,255.999,415.996z M255.999,104.854c-83.342,0-151.149,67.804-151.149,151.146s67.807,151.146,151.149,151.146
		c83.345,0,151.152-67.804,151.152-151.146S339.344,104.854,255.999,104.854z"/>
	<path d="M254.575,368.804c-18.388,0-33.347-18.54-33.347-41.327c0-22.784,14.96-41.321,33.347-41.321s33.347,18.538,33.347,41.321
		C287.923,350.263,272.963,368.804,254.575,368.804z M254.575,295.005c-13.508,0-24.498,14.568-24.498,32.472
		c0,17.909,10.99,32.477,24.498,32.477c13.508,0,24.498-14.568,24.498-32.477C279.073,309.573,268.083,295.005,254.575,295.005z"/>
</g>
</svg>
