<?xml version="1.0" encoding="utf-8"?>
<!-- Generator: Adobe Illustrator 17.1.0, SVG Export Plug-In . SVG Version: 6.00 Build 0)  -->
<!DOCTYPE svg PUBLIC "-//W3C//DTD SVG 1.1//EN" "http://www.w3.org/Graphics/SVG/1.1/DTD/svg11.dtd">
<svg version="1.1" id="Layer_1" xmlns="http://www.w3.org/2000/svg" xmlns:xlink="http://www.w3.org/1999/xlink" x="0px" y="0px"
	 viewBox="0 0 512 512" enable-background="new 0 0 512 512" xml:space="preserve" width="512" height="512">
<g>
	<path d="M226.577,236.236c-10.279,0-18.639-8.36-18.639-18.639s8.36-18.639,18.639-18.639c10.276,0,18.636,8.36,18.636,18.639
		S236.853,236.236,226.577,236.236z M226.577,207.809c-5.399,0-9.789,4.39-9.789,9.789s4.39,9.789,9.789,9.789
		c5.396,0,9.786-4.39,9.786-9.789C236.363,212.199,231.973,207.809,226.577,207.809z"/>
	<path d="M292.4,236.236c-10.276,0-18.636-8.36-18.636-18.639s8.36-18.639,18.636-18.639c10.273,0,18.633,8.36,18.633,18.639
		S302.673,236.236,292.4,236.236z M292.4,207.809c-5.396,0-9.786,4.39-9.786,9.789s4.39,9.789,9.786,9.789s9.783-4.39,9.783-9.789
		C302.183,212.199,297.796,207.809,292.4,207.809z"/>
	<path d="M256.001,416C167.778,416,96,344.222,96,255.999S167.778,96,256.001,96S416,167.775,416,255.999S344.225,416,256.001,416z
		 M256.001,104.85c-83.347,0-151.152,67.805-151.152,151.149S172.655,407.15,256.001,407.15
		c83.344,0,151.149-67.808,151.149-151.152S339.345,104.85,256.001,104.85z"/>
	<path d="M315.043,329.101c0,2.348-1.907,4.255-4.255,4.255h-104.06c-2.348,0-4.258-1.907-4.258-4.255l0,0
		c0-2.353,1.91-4.252,4.258-4.252h104.06C313.136,324.849,315.043,326.748,315.043,329.101L315.043,329.101z"/>
</g>
</svg>
