<?xml version="1.0" encoding="utf-8"?>
<!-- Generator: Adobe Illustrator 17.1.0, SVG Export Plug-In . SVG Version: 6.00 Build 0)  -->
<!DOCTYPE svg PUBLIC "-//W3C//DTD SVG 1.1//EN" "http://www.w3.org/Graphics/SVG/1.1/DTD/svg11.dtd">
<svg version="1.1" id="Layer_1" xmlns="http://www.w3.org/2000/svg" xmlns:xlink="http://www.w3.org/1999/xlink" x="0px" y="0px"
	 viewBox="0 0 512 512" enable-background="new 0 0 512 512" xml:space="preserve" width="512" height="512">
<g>
	<path d="M292.4,227.4c5.4,0,9.8-4.4,9.8-9.8c0-5.4-4.4-9.8-9.8-9.8c-5.4,0-9.8,4.4-9.8,9.8C282.6,223,287,227.4,292.4,227.4z"/>
	<path d="M226.6,227.4c5.4,0,9.8-4.4,9.8-9.8c0-5.4-4.4-9.8-9.8-9.8c-5.4,0-9.8,4.4-9.8,9.8C216.8,223,221.2,227.4,226.6,227.4z"/>
	<path d="M256,96c-88.2,0-160,71.8-160,160s71.8,160,160,160s160-71.8,160-160S344.2,96,256,96z M292.4,199
		c10.3,0,18.6,8.4,18.6,18.6s-8.3,18.6-18.6,18.6c-10.3,0-18.6-8.4-18.6-18.6S282.2,199,292.4,199z M226.6,199
		c10.3,0,18.6,8.4,18.6,18.6s-8.3,18.6-18.6,18.6c-10.3,0-18.6-8.4-18.6-18.6S216.4,199,226.6,199z M310.7,333.4h-104
		c-2.3,0-4.3-1.9-4.3-4.3c0-2.4,1.9-4.3,4.3-4.3h104.1c2.3,0,4.2,1.9,4.2,4.3C315,331.4,313.1,333.4,310.7,333.4z"/>
</g>
</svg>
