<?xml version="1.0" encoding="utf-8"?>
<!-- Generator: Adobe Illustrator 17.1.0, SVG Export Plug-In . SVG Version: 6.00 Build 0)  -->
<!DOCTYPE svg PUBLIC "-//W3C//DTD SVG 1.1//EN" "http://www.w3.org/Graphics/SVG/1.1/DTD/svg11.dtd">
<svg version="1.1" id="Layer_1" xmlns="http://www.w3.org/2000/svg" xmlns:xlink="http://www.w3.org/1999/xlink" x="0px" y="0px"
	 viewBox="0 0 512 512" enable-background="new 0 0 512 512" xml:space="preserve" width="512" height="512">
<g>
	<path d="M255.996,415.999C167.775,415.999,96,344.224,96,256S167.775,96.001,255.996,96.001C344.222,96.001,416,167.776,416,256
		S344.222,415.999,255.996,415.999z M255.996,104.851c-83.341,0-151.146,67.805-151.146,151.149s67.805,151.149,151.146,151.149
		c83.347,0,151.155-67.805,151.155-151.149S339.342,104.851,255.996,104.851z"/>
	<path d="M312.528,344.264c1.714,1.985,1.504,4.978-0.484,6.689l-25.622,22.208c-1.973,1.711-4.966,1.489-6.678-0.478l0,0
		c-1.717-1.991-1.504-4.975,0.478-6.689l25.616-22.208C307.818,342.075,310.817,342.299,312.528,344.264L312.528,344.264z"/>
	<path d="M329.96,247.182c-1.61,1.878-4.442,2.1-6.329,0.495l-42.388-36.361c-1.881-1.61-2.106-4.451-0.49-6.326l0,0
		c1.613-1.881,4.448-2.1,6.329-0.487l42.394,36.355C331.357,242.475,331.576,245.306,329.96,247.182L329.96,247.182z"/>
	<path d="M188.505,247.182c1.616,1.878,4.451,2.1,6.332,0.495l42.394-36.361c1.878-1.61,2.094-4.451,0.481-6.326l0,0
		c-1.61-1.881-4.445-2.1-6.329-0.487l-42.394,36.355C187.108,242.475,186.891,245.306,188.505,247.182L188.505,247.182z"/>
	<path d="M415.299,78.464c-0.563,1.433-2.18,2.141-3.613,1.581l-22.439-8.822c-1.425-0.566-2.129-2.18-1.578-3.61l0,0
		c0.571-1.436,2.179-2.126,3.613-1.572l22.448,8.822C415.157,75.423,415.862,77.037,415.299,78.464L415.299,78.464z"/>
	<path d="M415.349,76.93c0.435,1.306-0.258,2.71-1.555,3.142l-22.566,7.626c-1.303,0.435-2.701-0.255-3.145-1.552l0,0
		c-0.435-1.3,0.267-2.71,1.552-3.142l22.561-7.62C413.498,74.94,414.908,75.636,415.349,76.93L415.349,76.93z"/>
	<path d="M415.939,95.35c-0.563,1.433-2.168,2.138-3.601,1.573l-22.442-8.817c-1.43-0.563-2.132-2.179-1.564-3.61l0,0
		c0.563-1.43,2.168-2.135,3.601-1.57l22.448,8.819C415.803,92.309,416.51,93.92,415.939,95.35L415.939,95.35z"/>
	<path d="M433.104,128.641c0.871,1.267,0.539,2.997-0.734,3.865l-19.984,13.484c-1.274,0.862-3.003,0.524-3.868-0.746l0,0
		c-0.871-1.279-0.527-2.997,0.752-3.865l19.984-13.49C430.527,127.026,432.26,127.364,433.104,128.641L433.104,128.641z"/>
	<path d="M431.877,127.728c1.327,0.373,2.085,1.744,1.706,3.059l-6.506,22.904c-0.373,1.327-1.744,2.088-3.065,1.724l0,0
		c-1.312-0.388-2.079-1.756-1.706-3.068l6.509-22.907C429.194,128.119,430.563,127.352,431.877,127.728L431.877,127.728z"/>
	<path d="M447.39,137.676c0.865,1.267,0.53,3-0.749,3.859l-19.981,13.487c-1.273,0.859-3.006,0.527-3.862-0.749l0,0
		c-0.865-1.273-0.521-3.003,0.741-3.862l19.999-13.487C444.813,136.065,446.528,136.397,447.39,137.676L447.39,137.676z"/>
	<path d="M467.797,35.89c-1.383,1.922-4.078,2.345-5.988,0.963l-30.118-21.847c-1.91-1.392-2.34-4.075-0.951-5.994l0,0
		c1.398-1.922,4.063-2.354,6-0.951l30.112,21.832C468.765,31.291,469.189,33.962,467.797,35.89L467.797,35.89z"/>
	<path d="M468.475,33.622c0.145,2.109-1.433,3.944-3.551,4.087l-36.636,2.671c-2.12,0.151-3.945-1.419-4.093-3.533l0,0
		c-0.154-2.105,1.427-3.942,3.53-4.093l36.643-2.674C466.482,29.929,468.315,31.51,468.475,33.622L468.475,33.622z"/>
	<path d="M462.245,61.359c-1.386,1.925-4.078,2.351-5.988,0.957l-30.112-21.844c-1.916-1.389-2.346-4.069-0.948-5.994l0,0
		c1.386-1.916,4.069-2.343,5.988-0.954l30.118,21.847C463.222,56.757,463.636,59.44,462.245,61.359L462.245,61.359z"/>
</g>
</svg>
