<?xml version="1.0" encoding="utf-8"?>
<!-- Generator: Adobe Illustrator 17.1.0, SVG Export Plug-In . SVG Version: 6.00 Build 0)  -->
<!DOCTYPE svg PUBLIC "-//W3C//DTD SVG 1.1//EN" "http://www.w3.org/Graphics/SVG/1.1/DTD/svg11.dtd">
<svg version="1.1" id="Layer_1" xmlns="http://www.w3.org/2000/svg" xmlns:xlink="http://www.w3.org/1999/xlink" x="0px" y="0px"
	 viewBox="0 0 512 512" enable-background="new 0 0 512 512" xml:space="preserve" width="512" height="512">
<g>
	<path d="M256,96c-88.2,0-160,71.8-160,160s71.8,160,160,160s160-71.8,160-160S344.2,96,256,96z M237.2,211.3l-42.4,36.4
		c-1.8,1.6-4.7,1.4-6.3-0.5c-1.6-1.9-1.4-4.7,0.5-6.3l42.4-36.4c1.9-1.6,4.7-1.4,6.3,0.5C239.3,206.8,239.1,209.7,237.2,211.3z
		 M312,351l-25.6,22.2c-2,1.7-5,1.5-6.7-0.5s-1.5-5,0.5-6.7l25.6-22.2c2-1.7,5-1.5,6.7,0.5S314,349.3,312,351z M330,247.2
		c-1.6,1.9-4.4,2.1-6.3,0.5l-42.4-36.4c-1.9-1.6-2.1-4.5-0.5-6.3c1.6-1.9,4.4-2.1,6.3-0.5l42.4,36.4
		C331.4,242.5,331.6,245.3,330,247.2z"/>
	<path d="M415.3,78.5c-0.6,1.4-2.2,2.1-3.6,1.6l-22.4-8.8c-1.4-0.6-2.1-2.2-1.6-3.6l0,0c0.6-1.4,2.2-2.1,3.6-1.6l22.4,8.8
		C415.2,75.4,415.9,77,415.3,78.5L415.3,78.5z"/>
	<path d="M415.3,76.9c0.4,1.3-0.3,2.7-1.6,3.1l-22.6,7.6c-1.3,0.4-2.7-0.3-3.1-1.6l0,0c-0.4-1.3,0.3-2.7,1.6-3.1l22.6-7.6
		C413.5,74.9,414.9,75.6,415.3,76.9L415.3,76.9z"/>
	<path d="M415.9,95.3c-0.6,1.4-2.2,2.1-3.6,1.6l-22.4-8.8c-1.4-0.6-2.1-2.2-1.6-3.6l0,0c0.6-1.4,2.2-2.1,3.6-1.6l22.4,8.8
		C415.8,92.3,416.5,93.9,415.9,95.3L415.9,95.3z"/>
	<path d="M433.1,128.6c0.9,1.3,0.5,3-0.7,3.9l-20,13.5c-1.3,0.9-3,0.5-3.9-0.7l0,0c-0.9-1.3-0.5-3,0.8-3.9l20-13.5
		C430.5,127,432.3,127.4,433.1,128.6L433.1,128.6z"/>
	<path d="M431.9,127.7c1.3,0.4,2.1,1.7,1.7,3.1l-6.5,22.9c-0.4,1.3-1.7,2.1-3.1,1.7l0,0c-1.3-0.4-2.1-1.8-1.7-3.1l6.5-22.9
		C429.2,128.1,430.6,127.4,431.9,127.7L431.9,127.7z"/>
	<path d="M447.4,137.7c0.9,1.3,0.5,3-0.7,3.9l-20,13.5c-1.3,0.9-3,0.5-3.9-0.7l0,0c-0.9-1.3-0.5-3,0.7-3.9l20-13.5
		C444.8,136.1,446.5,136.4,447.4,137.7L447.4,137.7z"/>
	<path d="M467.8,35.9c-1.4,1.9-4.1,2.3-6,1L431.7,15c-1.9-1.4-2.3-4.1-1-6l0,0c1.4-1.9,4.1-2.4,6-1l30.1,21.8
		C468.8,31.3,469.2,34,467.8,35.9L467.8,35.9z"/>
	<path d="M468.5,33.6c0.1,2.1-1.4,3.9-3.6,4.1l-36.6,2.7c-2.1,0.2-3.9-1.4-4.1-3.5l0,0c-0.2-2.1,1.4-3.9,3.5-4.1l36.6-2.7
		C466.5,29.9,468.3,31.5,468.5,33.6L468.5,33.6z"/>
	<path d="M462.2,61.4c-1.4,1.9-4.1,2.4-6,1l-30.1-21.8c-1.9-1.4-2.3-4.1-0.9-6l0,0c1.4-1.9,4.1-2.3,6-1l30.1,21.8
		C463.2,56.8,463.6,59.4,462.2,61.4L462.2,61.4z"/>
</g>
</svg>
