<?xml version="1.0" encoding="utf-8"?>
<!-- Generator: Adobe Illustrator 17.1.0, SVG Export Plug-In . SVG Version: 6.00 Build 0)  -->
<!DOCTYPE svg PUBLIC "-//W3C//DTD SVG 1.1//EN" "http://www.w3.org/Graphics/SVG/1.1/DTD/svg11.dtd">
<svg version="1.1" id="Layer_1" xmlns="http://www.w3.org/2000/svg" xmlns:xlink="http://www.w3.org/1999/xlink" x="0px" y="0px"
	 viewBox="0 0 512 512" enable-background="new 0 0 512 512" xml:space="preserve" width="512" height="512">
<g>
	<path d="M226.6,236.2c-10.3,0-18.6-8.4-18.6-18.6c0-10.3,8.4-18.6,18.6-18.6c10.3,0,18.6,8.4,18.6,18.6
		C245.2,227.9,236.9,236.2,226.6,236.2z M226.6,207.8c-5.4,0-9.8,4.4-9.8,9.8c0,5.4,4.4,9.8,9.8,9.8s9.8-4.4,9.8-9.8
		C236.4,212.2,232,207.8,226.6,207.8z"/>
	<path d="M292.4,236.2c-10.3,0-18.6-8.4-18.6-18.6c0-10.3,8.4-18.6,18.6-18.6s18.6,8.4,18.6,18.6C311,227.9,302.7,236.2,292.4,236.2
		z M292.4,207.8c-5.4,0-9.8,4.4-9.8,9.8c0,5.4,4.4,9.8,9.8,9.8s9.8-4.4,9.8-9.8C302.2,212.2,297.8,207.8,292.4,207.8z"/>
	<path d="M256,96c-88.2,0-160,71.8-160,160s71.8,160,160,160s160-71.8,160-160S344.2,96,256,96z M357.8,307
		c-20.6,26.8-53.7,49.3-95.7,58.9c-2.8,0.7-6.3-0.6-7.6-2.7c-1.3-2.1-0.1-4.2,2.7-4.8c41.4-8.5,74-30,94.4-55.8
		c1.4-1.8,3.8-2.2,5.5-1C358.8,302.8,359.2,305.2,357.8,307z M256.4,253.5c-50.4,0-100.7-6.2-150-18.4c3.5-24.3,12.8-46.8,26.4-66
		c40.7,9.4,82.1,14.1,123.6,14.1c41.3,0,82.6-4.7,123-14c13.6,19.2,22.8,41.7,26.3,66C356.6,247.4,306.4,253.5,256.4,253.5z"/>
</g>
</svg>
