<?xml version="1.0" encoding="utf-8"?>
<!-- Generator: Adobe Illustrator 17.1.0, SVG Export Plug-In . SVG Version: 6.00 Build 0)  -->
<!DOCTYPE svg PUBLIC "-//W3C//DTD SVG 1.1//EN" "http://www.w3.org/Graphics/SVG/1.1/DTD/svg11.dtd">
<svg version="1.1" id="Layer_1" xmlns="http://www.w3.org/2000/svg" xmlns:xlink="http://www.w3.org/1999/xlink" x="0px" y="0px"
	 viewBox="0 0 512 512" enable-background="new 0 0 512 512" xml:space="preserve" width="512" height="512">
<g>
	<path d="M226.582,236.24c-10.275,0-18.635-8.36-18.635-18.639c0-10.273,8.36-18.634,18.635-18.634
		c10.276,0,18.636,8.36,18.636,18.634C245.218,227.88,236.858,236.24,226.582,236.24z M226.582,207.817
		c-5.396,0-9.785,4.388-9.785,9.783c0,5.399,4.389,9.789,9.785,9.789s9.786-4.39,9.786-9.789
		C236.368,212.205,231.978,207.817,226.582,207.817z"/>
	<path d="M292.404,236.24c-10.276,0-18.636-8.36-18.636-18.639c0-10.273,8.36-18.634,18.636-18.634s18.636,8.36,18.636,18.634
		C311.041,227.88,302.68,236.24,292.404,236.24z M292.404,207.817c-5.396,0-9.786,4.388-9.786,9.783c0,5.399,4.39,9.789,9.786,9.789
		s9.786-4.39,9.786-9.789C302.191,212.205,297.8,207.817,292.404,207.817z"/>
	<path d="M357.149,301.579c1.718,1.188,2.094,3.603,0.677,5.432c-20.619,26.788-53.691,49.304-95.723,58.874
		c-2.843,0.664-6.326-0.587-7.636-2.699l0,0c-1.328-2.127-0.062-4.246,2.74-4.819c41.368-8.485,74.033-29.972,94.409-55.787
		C353.002,300.829,355.423,300.391,357.149,301.579L357.149,301.579z"/>
	<path d="M256,95.998c-88.224,0-160,71.777-160,160.004c0,88.225,71.776,159.999,160,159.999s160-71.774,160-159.999
		C416,167.775,344.224,95.998,256,95.998z M132.712,168.648c40.67,9.378,82.142,14.082,123.615,14.082
		c41.28,0,82.561-4.667,123.042-13.965c13.608,19.189,22.848,41.678,26.283,66.008c-49.032,12.166-99.177,18.26-149.325,18.271
		c-50.365-0.012-100.729-6.164-149.957-18.425C109.829,210.299,119.088,187.822,132.712,168.648z M256,104.849
		c48.538,0,91.799,23.003,119.472,58.674c-39.229,8.807-79.187,13.223-119.145,13.223c-40.148,0-80.298-4.458-119.705-13.345
		C164.3,127.799,207.518,104.849,256,104.849z M256,407.151c-83.344,0-151.15-67.804-151.15-151.148
		c0-5.198,0.264-10.336,0.779-15.401c49.482,12.264,100.09,18.416,150.698,18.424c50.391-0.009,100.781-6.118,150.058-18.27
		c0.505,5.015,0.765,10.101,0.765,15.247C407.15,339.346,339.344,407.151,256,407.151z"/>
</g>
</svg>
