<?xml version="1.0" encoding="utf-8"?>
<!-- Generator: Adobe Illustrator 17.1.0, SVG Export Plug-In . SVG Version: 6.00 Build 0)  -->
<!DOCTYPE svg PUBLIC "-//W3C//DTD SVG 1.1//EN" "http://www.w3.org/Graphics/SVG/1.1/DTD/svg11.dtd">
<svg version="1.1" id="Layer_1" xmlns="http://www.w3.org/2000/svg" xmlns:xlink="http://www.w3.org/1999/xlink" x="0px" y="0px"
	 viewBox="0 0 512 512" enable-background="new 0 0 512 512" xml:space="preserve" width="512" height="512">
<g>
	<path d="M226.579,236.24c-10.276,0-18.636-8.363-18.636-18.645c0-10.273,8.36-18.63,18.636-18.63s18.636,8.357,18.636,18.63
		C245.216,227.877,236.855,236.24,226.579,236.24z M226.579,207.815c-5.396,0-9.786,4.387-9.786,9.78
		c0,5.402,4.39,9.795,9.786,9.795s9.786-4.393,9.786-9.795C236.366,212.203,231.975,207.815,226.579,207.815z"/>
	<path d="M292.398,236.24c-10.276,0-18.636-8.363-18.636-18.645c0-10.273,8.36-18.63,18.636-18.63
		c10.277,0,18.639,8.357,18.639,18.63C311.037,227.877,302.675,236.24,292.398,236.24z M292.398,207.815
		c-5.396,0-9.786,4.387-9.786,9.78c0,5.402,4.39,9.795,9.786,9.795c5.397,0,9.789-4.393,9.789-9.795
		C302.187,212.203,297.795,207.815,292.398,207.815z"/>
	<path d="M256.001,416.001C167.776,416.001,96,344.228,96,256.006c0-88.228,71.776-160.007,160.001-160.007
		C344.225,95.999,416,167.777,416,256.006C416,344.228,344.225,416.001,256.001,416.001z M256.001,104.848
		c-83.345,0-151.152,67.809-151.152,151.157c0,83.342,67.806,151.146,151.152,151.146c83.344,0,151.149-67.803,151.149-151.146
		C407.15,172.658,339.345,104.848,256.001,104.848z"/>
	<path d="M370.764,279.266c-1.842-0.584-4.057,1.211-5.057,3.902c-37.21,100.466-180.46,100.468-217.673,0.004
		c-1-2.695-3.216-4.487-5.058-3.905c-1.831,0.578-2.55,3.472-1.479,6.362c17.22,46.489,55.86,72.679,97.218,78.58l-12.507,17.568
		l17.198,0.755l4.863-17.324c1.776,0.119,3.555,0.191,5.334,0.236l0.647,23.44l16.461-4.485l-6.82-19.109
		c45.42-2.48,89.597-29.023,108.354-79.666C373.315,282.739,372.595,279.842,370.764,279.266z"/>
</g>
</svg>
