<?xml version="1.0" encoding="utf-8"?>
<!-- Generator: Adobe Illustrator 17.1.0, SVG Export Plug-In . SVG Version: 6.00 Build 0)  -->
<!DOCTYPE svg PUBLIC "-//W3C//DTD SVG 1.1//EN" "http://www.w3.org/Graphics/SVG/1.1/DTD/svg11.dtd">
<svg version="1.1" id="Layer_1" xmlns="http://www.w3.org/2000/svg" xmlns:xlink="http://www.w3.org/1999/xlink" x="0px" y="0px"
	 viewBox="0 0 512 512" enable-background="new 0 0 512 512" xml:space="preserve" width="512" height="512">
<g>
	<path d="M226.58,236.24c-10.275,0-18.635-8.36-18.635-18.638c0-10.276,8.36-18.636,18.635-18.636
		c10.278,0,18.638,8.36,18.638,18.636C245.218,227.88,236.857,236.24,226.58,236.24z M226.58,207.816
		c-5.396,0-9.785,4.39-9.785,9.786c0,5.397,4.389,9.788,9.785,9.788c5.397,0,9.788-4.39,9.788-9.788
		C236.368,212.206,231.977,207.816,226.58,207.816z"/>
	<path d="M292.403,236.24c-10.277,0-18.639-8.36-18.639-18.638c0-10.276,8.362-18.636,18.639-18.636
		c10.275,0,18.635,8.36,18.635,18.636C311.038,227.88,302.678,236.24,292.403,236.24z M292.403,207.816
		c-5.397,0-9.789,4.39-9.789,9.786c0,5.397,4.392,9.788,9.789,9.788c5.396,0,9.785-4.39,9.785-9.788
		C302.188,212.206,297.799,207.816,292.403,207.816z"/>
	<path d="M256.002,416.002C167.777,416.002,96,344.227,96,256.001c0-88.227,71.777-160.004,160.002-160.004
		C344.226,95.998,416,167.775,416,256.001S344.226,416.002,256.002,416.002z M256.002,104.848
		c-83.345,0-151.152,67.807-151.152,151.154c0,83.345,67.807,151.151,151.152,151.151c83.344,0,151.148-67.806,151.148-151.151
		C407.15,172.655,339.346,104.848,256.002,104.848z"/>
	<path d="M367.48,331.536c-0.995,1.424-2.499,1.032-3.454-0.857c-18.254-38.611-62.832-65.501-107.383-64.805
		c-44.569-0.643-89.111,26.302-107.712,64.46c-0.973,1.87-2.446,2.281-3.377,0.898l0,0c-0.933-1.386-0.934-4.073,0.084-5.989
		c19.348-38.952,65.162-66.509,111.04-65.889c45.857-0.749,91.778,26.679,110.857,66.082
		C368.54,327.372,368.475,330.109,367.48,331.536L367.48,331.536z"/>
</g>
</svg>
