<?xml version="1.0" encoding="utf-8"?>
<!-- Generator: Adobe Illustrator 17.1.0, SVG Export Plug-In . SVG Version: 6.00 Build 0)  -->
<!DOCTYPE svg PUBLIC "-//W3C//DTD SVG 1.1//EN" "http://www.w3.org/Graphics/SVG/1.1/DTD/svg11.dtd">
<svg version="1.1" id="Layer_1" xmlns="http://www.w3.org/2000/svg" xmlns:xlink="http://www.w3.org/1999/xlink" x="0px" y="0px"
	 viewBox="0 0 512 512" enable-background="new 0 0 512 512" xml:space="preserve" width="512" height="512">
<g>
	<path d="M226.578,236.236c-10.276,0-18.636-8.36-18.636-18.633c0-10.276,8.36-18.636,18.636-18.636
		c10.277,0,18.638,8.36,18.638,18.636C245.216,227.876,236.855,236.236,226.578,236.236z M226.578,207.817
		c-5.396,0-9.786,4.39-9.786,9.786s4.39,9.783,9.786,9.783c5.397,0,9.788-4.387,9.788-9.783S231.975,207.817,226.578,207.817z"/>
	<path d="M292.401,236.236c-10.279,0-18.642-8.36-18.642-18.633c0-10.276,8.363-18.636,18.642-18.636
		c10.276,0,18.636,8.36,18.636,18.636C311.037,227.876,302.677,236.236,292.401,236.236z M292.401,207.817
		c-5.399,0-9.792,4.39-9.792,9.786s4.393,9.783,9.792,9.783c5.396,0,9.786-4.387,9.786-9.783S297.797,207.817,292.401,207.817z"/>
	<path d="M255.996,416C167.773,416,96,344.224,96,256.001C96,167.776,167.773,96,255.996,96C344.223,96,416,167.776,416,256.001
		C416,344.224,344.223,416,255.996,416z M255.996,104.85c-83.342,0-151.146,67.806-151.146,151.152
		c0,83.342,67.803,151.149,151.146,151.149c83.347,0,151.154-67.806,151.154-151.149C407.15,172.656,339.342,104.85,255.996,104.85z
		"/>
	<path d="M322.508,308.533H199.096c-2.691,0-4.863,2.178-4.863,4.863c0,2.688,2.172,4.86,4.863,4.86h6.536l10.787,26.121
		l10.687-26.121h68.278l10.786,26.121l10.686-26.121h5.651c2.685,0,4.863-2.172,4.863-4.86
		C327.371,310.711,325.193,308.534,322.508,308.533z"/>
</g>
</svg>
